<svg id="illustration-country-profile" xmlns="http://www.w3.org/2000/svg" width="448" height="254" viewBox="0 0 448 254">
  <title>illustration-country-profile</title>
  <path d="M165.473,167.864l1.345,3.764-1.346,3.753L160.9,181v6.981l-3.5,8.845-5.112.516-4.305,4.547.538,1.076.269,2.417-4.057,5.7-.517.726-1.312,2.612-.841,1.675-5.112,1.052,1.346,1.616-2.691,4.553-4.574,1.055-.538,1.878-1.883.529-.538,1.878,1.614.812-.807,1.608-.269,2.414-2.152,1.871-.269,1.341,1.883,2.156-1.345,3.485-1.883,2.408v2.416l-2.421-.278-1.614,1.6-1.614-2.691-2.152-3.231.269-3.757-.807-2.152,1.076-2.143v-4.564l-.807-2.151V219.48l1.345-9.929.269-11.812-.269-7.25-1.614-3.228-5.651-4.587-5.65-11.837-1.883-1.35-.807-3.225,1.883-2.14-.808-1.614,1.076-4.56,2.422-2.406,1.076-3.486-.807-3.225-.269-1.075-1.076-1.347-1.614-.006-.269,1.341-3.5-1.089-4.3-2.7-1.883-4.3-2.691-1.89-2.96-.549-2.422-2.963-2.96-.28-1.345,1.069-4.036-2.97-1.884.261-5.381-4.049.269-3.758-2.96-4.04L64.3,114.557l-2.153-4.3-1.614-.543,1.076,4.032,2.153,3.5.538,2.15,1.076,3.494-3.229-3.235V117.5l-3.229-2.43.808-1.07-1.883-3.5-.539-4.3-3.228-2.967-2.422-5.379-1.614-5.108,4.305-13.407L54.079,77.2l-3.5-4.31.269-1.609-1.884-3.23L48.7,65.629l-4.844-6.464-1.345,1.606-2.96-3.5-3.5-.283-4.036-3.238-2.422.527-.538,1.609-5.381,2.663,1.076-2.412,2.96-2.673-6.189,3.733v1.88L16.14,62l-2.96,2.4-7,2.656-1.346-.812,8.611-3.991,2.96-3.747-4.844-.289V56.079l-1.614.8L8.606,54.993l1.614-1.067-1.884-1.35,3.228-3.209,1.615.006,3.229-2.94-5.651-.56L9.683,43.721l3.767-1.863,1.614,1.349,1.614-2.678-1.346-.542-1.345-2.959,3.767-.253L19.1,34.363l9.148-2.915,6.458,2.174,1.883-1.066,2.691,1.622,3.228-.523L44.393,35l2.152.277,7,1.908.269-1.342,2.691-.794,2.153-1.333L60.806,34l.807-1.071,1.884.813.807,2.688L67.533,35.1l5.381,1.1,2.96.549,1.346,1.08-1.076,1.606,5.112.02,3.228,1.624L86.367,38.4l2.421-.259,6.189,1.9,1.614-1.872,1.883,1.35,2.421-1.869.807-2.144L99.821,34.7l2.153-4.555,2.421,2.426v2.416l1.883,2.156,1.345-1.068,1.076.81.538,3.492,3.767-3.206,1.345-1.337,2.691,1.353-1.345.8-.269,2.952L112.736,42.8l-1.345-.542-3.767,2.4-1.614-.006,1.076,1.615-2.152,2.139-1.346-.542-1.883,1.6.538,1.076-6.458,7.222,1.614.812.807,3.762,2.152-.259,6.189,4.858,3.229-.255-.269,3.489,2.96,3.234,1.346-3.753V67.507l2.421-1.064,1.346-4.827L116.5,59.464l1.345-3.216-.269-2.149,2.153-2.139,2.153.277,1.883-.8,3.5,2.968.269,4.3,2.422,1.889,4.3-3.741,3.5,6.189-.269,2.147,4.843,4.584.538,2.687-1.883,1.871-2.153.26-1.346,1.6-8.61-.036-4.036,4.548L127,79.643l4.036-1.594,1.076,1.347-2.691,1.331,1.076,1.079.538,1.881,2.153.546,1.345,1.616-3.229.524-2.422,1.064.269-1.879-5.92,2.124-1.076,2.68-1.345,2.411L116.5,93.83l-2.96,9.385-7.8,6.949.269,4.565.269,2.955-1.615,2.141-2.421-5.379-.538-1.882-1.883-.545-1.346-.811-4.844-.288-1.345,1.337-3.767-.284-5.651,3.2.269,3.223-.185.925-.891,4.44,1.345,5.376,4.305,1.9,2.96-1.6,1.345-2.411,2.422-1.6,2.153,1.351-1.211,3.753-1.211.263.269,2.955.114.035,5.267,1.6.269,7.25.239.266,2.183,2.429,3.228-.792,3.767,1.895,1.076-1.875,1.345-1.606,4.574-2.129,1.346,1.348.538-1.877,3.767,2.432,1.884.276,1.883,1.619,1.614-1.6,1.614.275,2.152,3.231,1.614.543,2.691,3.5,4.843.288,4.036,2.433.269,2.686,1.076,2.152-1.614,4.021,3.767-1.327.538,1.076,1.614-1.068,3.228,1.356.807,1.883,5.112.558,4.574,3.241ZM142.427,82.9l.7-5.206-2.435-.345,2.17-2.54-1.08-.476L139.6,76.5,136.7,78.9l-2.18.958,3.875,2.191,2.543-1.56-.282,2.267ZM105.47,123.317l-4.3-.018-1.076.8,4.574.824,3.5,2.162,1.076,1.616,3.5-1.06Zm15.068,8.385.538-.8-2.153-1.888-1.95.113-2.356.137,1.346,1.079-2.422,1.332Zm-11.032.223.538-.8-2.96-.549Zm17.22.876-2.96-2.16-1.076,1.338Zm82.2-64.232,1.345.005.942,1.481-1.615.665-.672,2.816,1.345.005,1.346.677-2.153.662-2.287,2.676.941.675,3.767-2.132,5.247-1.321-.807-1.212,1.345-1.068-.807-1.748-1.211.8-.807-1.748L211.619,65.9l1.48-3.887-2.69.123.269-1.609-1.615-.275L207.179,64l-.134,2.416.941-.667Zm-2.018,4.69V70.173l.353-.351.185-.184v-.805l-.941-1.078-.983-.167-.632-.108-2.422,1.332v1.879l-1.345,2.277,1.615,2.021Zm36.459,26.528V101.4l1.615.611-.27-1.746Zm135.746,21.7-1.077,1.875-.269,2.415,1.884.008Zm-15.876,11.479,1.884.008.269-2.952-1.884.529ZM381,140.56l1.345.005,2.153,2.694.807-1.607-2.153-2.157-1.615-1.08L381,133.042l-2.153-.546-1.076,4.023Zm3.5,4.579.806,1.346,1.076-.8v-2.953l-.806,0Zm.538,3.761-.269,2.415,2.153,2.157,1.345-3.217V147.57l-1.075-.541Zm-1.075,1.606.268-1.878-1.076-.541-.269,2.952Zm-19.643,11.464,1.345,1.348.269,1.881,2.422,1.621,2.421.01,2.153,2.157,1.345-2.679.539-2.951.808.272,1.076-1.338-.269-1.612,1.345-.8-1.076-.541v-4.027l1.076-1.606-1.614-.543-.539-2.419-1.345-.006-.539,2.146-8.072,5.6-1.614.262Zm13.722,8.38,1.615.006.269-4.026.807,0,1.077,3.226.806-1.071L382.342,165l1.076-2.143-1.076,0-1.884.8-.269-1.612,1.883-1.334,2.422,1.352,2.69-2.137-1.345-1.079-2.153,1.6L381,159.085l-2.153,1.87-.27,3.489-1.076,2.143Zm-18.3-4.371-1.884-1.35-1.076-2.689-2.959-3.5-1.346-.274-3.5-4.31-3.5-.552,3.228,5.115,2.421,1.889.269,2.149,7,9.157,1.346-1.874Zm11.839,8.64-3.5-2.7-1.884.261-1.883.8-3.5-1.357-1.076,1.07,1.614,1.349,3.767.552,3.5.82Zm4.575,1.9.268-1.341L374,174.9Zm3.767-2.4.269,1.881,2.959-.793Zm0,4.564.807-1.339-2.69-.011Zm39.015,21.37.269-2.146-1.615.531-1.883-4.841-1.884-1.082-1.076-6.985-1.614-1.08-1.345-4.57L407.1,186.04l-.806,4.83-6.458-4.859,1.345-4.559-4.843-.825-4.843,2.665v1.879l-1.884-.008-2.153-1.62-3.767,4.818-2.153-1.083-.27,2.953-1.075,2.68-1.345-.006-5.113,1.859-2.153,1.6-2.96,1.329.539,3.761-.807,1.339,1.346,12.087-1.346,1.336,2.69,2.428,3.229-1.866,4.843.288,3.5-2.4,2.152-.259,2.422-1.869,6.188,1.636,2.69,3.77,2.153-2.407-.538,3.488,1.884-.26v2.953l2.69,3.769,3.5.283,1.076-1.337,1.615.542,1.344-1.336,3.5-.254,1.883-4.021,1.884-1.871.808-2.145,2.152-3.749,1.346-3.484-.539-5.909Zm-95.519-50.33,1.614,2.692,1.614-2.41-2.69-2.965Zm-44.4,34.72-2.69,1.868-1.345-.542-1.076,3.486.807,2.957-1.615,3.483.539,4.3,2.152,1.619,2.691-1.063,1.614-6.437,2.153-4.287V186.6l1.076-2.143-2.153-4.3ZM-.273,67.843l1.345.543,2.96-1.33-1.076-.273Zm443.695-23.68-1.48,1.2-2.421-4.037-4.709-1.093-5.651-2.305-3.363.389-5.92-1.5,1.615,3.094-4.708-1.765-5.383-.559L410.057,39.6l-2.153-.949-.134-2.014-1.749-1.081-9.283-1.113-.4-.941-2.69-1.353L384.092,30.9l-2.287-.681-1.346.934.4,1.881-2.825.391-5.382-.962-.269,2.683-6.054-4.32.807-1.2.134-1.342-1.479-.812-3.1-.147-.941-.272-.942,2.009-4.843.115-1.346-1.482-8.744-.842-2.018,1.468-4.843,1.994,1.614-2.141.269-1.207.808-.131,5.919-3.063.135-1.879-4.035-2.03-2.826.525-4.17-1.091.941-.936-1.614-.812-5.247,2.932v1.208l-6.458-.026-.941,1.2-4.439-.287-3.1,2.806,1.346,1.751-7.4-.031.807,1.211-.134,1.208,3.767,2.3,1.076,3.495-1.615-.275-.807-2.42-1.346-.408-2.556-1.621-.538.8-2.018.394,2.422,1.353v.939l-3.229-1.49-.942-2.823-1.21,2.009-.539,1.071,1.345,2.288.4,3.223,1.48-1.068,3.229,1.625,1.21,2.824-2.019-.813-1.479-1.751-1.884.126.4,1.21-1.21,3.486-2.422.93-2.826-.817,1.48-.262.941-1.2,2.019-.26.673-2.145-1.076-1.481-.4-4.431-1.345-1.617.539-3.354-4.44-1.226-.673,4.293L295.3,33.754l.539,2.284,2.96,2.294.538.942-.673.8-1.345-.274-3.767-2.432-1.615-.946-2.96-.012-.941.667.807,1.614-1.749.932-1.211-.811-2.959-.012-2.288.931-.269-1.612-3.1.927-4.3,3.741-1.749.664-.808-1.614.673-1.608-.941-1.615-2.288.259.808,2.017-.269,3.623-1.48-.812-2.018,2.408-.4,1.878-2.826-1.623-1.21.934,1.346,1.348-.809,1.071-3.093-2.3-.27-2.552-2.69-2.159,2.018.545,5.785,1.367,1.479-.8.674-2.414-1.076-1.347-7.8-2.851L254,36l-.125-.011-1.489-.13-1.48-1.349.539-.669-1.615-.275-.673-.674-.941.533-.942-.675-1.749,1.2-.672-1.077L243.5,36.092l-.269-.941-2.287-.278-3.767,1.461-1.749,1.738-.942,1.606-2.556,2.138L230.723,45.3l-4.973,5.623-3.5,1.726-.691,2.816.134,3.759,2.574,2.83,2.153-1.736,1.345.005,1.749-1.6.673,4.164,1.076,1.884v2.685l1.749.007.135-1.207,1.076-.667,1.211-.129,1.345-5.364,1.211-1.069.269-2.147-1.211-.81-.538-1.747,1.211-2.948,2.018-.394,1.884-2.14-.27-1.209,1.615-2.275,2.422-.125.672,1.614L243.1,50.454l-1.48,1.2.4,3.492,1.346,1.616.4,1.747,4.844-1.86,3.633.686-1.885.932-4.035.386-1.345,1.6,1.21,1.616-.941,1.876L244.041,62.4l-1.614.128-1.345,1.337.1,2.287.039.935-.837.724-1.249,1.08-1.144-.878-3.632,2L232.068,68.8l-2.153.931-1.749-.544-.134-2.148.673-2.414-.4-1.075.4-1.61-3.229,2.269-.134,1.879.673,1.479-.134,2.416-2.426.543-2.283.511-.269,2.012-.673,1.206-1.614.262-.126.4-.547,1.744-3.095,1.866-1.211-.676-.807.131v1.88l-4.036-.017-.269,1.744,2.691.682,2.556,2.829-1.426,4.263-.054.161-7.8-.569-1.548.867.07,1.812.065,1.678L201.663,97.4l.538.808.269,2.351,3.9.62.673,1.211.942-.265.673-.8,3.229.282,2.96-2.807-.269-2.417,1.211-1.606,3.094-2.672V90.358l1.48-1.336,3.094,1.221,2.973-.891.122-.036.538-1.206,1.614.813,1.883,3.095,4.708,3.375,1.211,2.019-1.076,1.741.807.54,1.749-2.141-.673-1.211.4-1.072,1.749,1.215.538-.669-2.421-2.024-1.076-1.212-1.48-.543-.807-1.346L231.933,89.2l.4-2.549.461.108.544.127.744.174L235.3,89.62l1.211.676,1.645,1.139L240.409,93l.807,2.822,2.085,3.566,1.816.746-.067-1.41,1.414.878-1.077-1.884-.269-2.283,1.749.007,1.884-1.2.928.583.148.093,2.96-.524.134-1.208-.637-1.084-.708-1.2.649-1.616.7-1.735.942,0,.091-1.1.043-.512,1.884-2.14L258.3,85.15l-.27,1.475,1.615,1.35,2.031-.764.256-.435-1.884-1.618,3.661-1.663,1.317-.6-.538.669,1.21,0-1.21,1.472-.27,1.207-1.762.477-.253.566,1.88-.1L268.93,91.1l1.479,1.751-2.152,1.871-3.229-.416-3.364-2.028-3.228.121-1.48,1.2-3.364.523.135,1.074-3.094.121-.27,1.341.135,1.88,2.288,3.231,1.479.543,1.076-.667,2.153.009.538.808,4.17.286.808,2.285-1.21,2.948-1.211,2.68-1.237-.07-1.319-.075-2.153.259-1.345.934-4.036-1.627-1.951.194-3.162-2.228-2.018-.411-2.287,2.273.538,1.345-.942,1.338-3.9-1.9-.4-1.21-1.749-1.215-2.691.123-3.767-2.3,1.614-2.276v-1.611L228.839,101l-3.633-.015-5.247-.156-7,2.387-2.018.126-.065.013-1.953.382-1.211-1.079-.538.132-.673.8-.942,2.412-2.69.526-1.615,3.215.135,3.356-3.095,2.538-1.17,1.335-2.462,2.811-2.018,5.9-.491.672-.585.8,1.346,2.153-.626,5.37-.047.4-1.211,1.606.538,4.029,1.345.945,1.158,1.633,1.8,2.541-.018.2-.117,1.277,3,2.728,2.784,2.531,1.884,1.216.053-.024,2.907-1.307,2.421-.393,1.749.813,1.615.007,2.691-1.6,1.6-.23,1.53-.22.5-.072,2.556.816,1.211,2.287,3.9-.655,1.883,2.424-.269,1.207-.013.4-.063,2-.059,1.894-.807,0,1.211,4.435,3.632,3.237,1.346,5.375-.4,1.341,1.076,3.494-2.96,7.908.036.674.1,1.876,3.363,6.994-.4,2.281,1.48,6.853.794.862.82.89L238.659,213l-.538,1.743,3.229,1.892,2.153-1.2,4.843.289.943-.8,2.69-1.063,2.153-1.871,2.422-4.553L258.7,205.3l-.067-1.662-.068-1.7,2.422-1.2,1.346-.935.538-2.414-.807-2.554.27-2.012,3.5-4.013,2.018-.663,2.287-2.944-.134-7.25-.572-.787-.5-.694-.134-2.417-.539-2.419.942-2.816.538-1.608,2.2-3.835,1.027-1.789,5.113-4.275,2.152-2.408,4.17-9.111.4-3.488-2.153,1.065-2.421.124-.942.667-3.768.656-.869-1.362-1.646-2.58-1.521-2.384-2.96-2.294-.4-2.955-1.75-1.35-1.748-6.585-1.076,0,.269-1.342-.209-.5-.867-2.058-2.959-4.174-1.48-3.228,2.422,1.755,1.161-1.411.05.074.016-.011.252,1.892,2.153,4.707,3.768,3.64,1.749,5.511,2.825,4.442,2.152,6.721,2.019-1.469,9.014-2.648.134-1.745,5.919-2.526.539-2.011,3.632-4.818-2.287-2.695-2.019-.679-.538-2.955-2.959,2.539-2.556.123-.619-.8-1.138-1.473-3.759-4.864v-1.745l.163-.037.289-.065,1.3-.293,2.556,2.964,4.17,2.433,2.421-.8,1.346,2.288,1.21.676,6.054.965,4.305-.519,3.1,4.04,2.69.279-1.615,1.336,4.17,1.494.941-2.413,1.346,2.959,1.345,9.134,1.883,1.35.4,2.955,1.749,6.048.941,1.078,2.555-4.017.135-2.818,1.076-2.144-.4-3.626.807.272,2.153-1.6.538-1.743,5.516-4.541-.4-1.21,1.884-1.2.673.809,1.884-.664.673-1.608,1.21.677.673,1.882,1.076,2.689,1.749.947.942,4.837,1.075.675,1.077-.935.941-1.339.673,2.554.672,2.016,1.345,3.5-.269,1.878.269,3.894,2.8,2.936.156.163.539,2.956.942,2.152,1.479,1.349,2.825.951-1.48-2.288-.269-3.626L355.032,152l-.559-1.024-.249-.456-1.749-.813-.672-2.016-.943-.944v-2.282l1.076-2.412v-.94l.943,0,.269.941,1.211,0,1.613,1.887,1.884.813.808,1.614-.538,1.475,3.229-1.867,1.076-.4,1.748-3.617-.4-4.163-2.555-3.367-2.288-2.157.27-1.744,2.153-2.408,1.883.142.941.944.674,0,.4-1.207,1.884-.261,1.749-1.335,1.48-.4,1.076.273,2.422-1.6,2.825-4.419,2.153-5.629-.808-1.211.4-1.341-2.556-5.649-1.749-1.35,1.615-2.544,1.749-.127v-1.343l-2.959-.28-.942.8-1.884-1.35.135-1.61,1.076,0,.269-1.207,1.884-2.409,1.345,1.348-.673,1.34.941.675,2.287-1.736,1.884,1.082.268,3.626,2.153.277,1.077,5.24,3.363-1.866.134-2.684-2.69-3.9-1.076-.407.27-1.207,1.345.005,1.614-2.141-.672-1.614,2.018-1.737.942.675,2.153-.528,2.555-4.151,2.557-5.091-.27-6.713-1.076-1.884V72.291l-2.555-1.89-1.884,1.2L388.4,69.04l5.785-8.568,11.166-.088-.538.937,4.574-.518.269-1.207-.673-1.211,1.211-2.143,3.9-.924.27,1.478.941.81,1.211-1.74.808-.8V52.916l3.228,1.624-1.21.4.135,2.148-1.211.263-3.633,5.892-1.345.263-.807,4.292,4.305,6.864.134,2.148,1.481-1.47.807-2.144,1.076.273V70.245l1.614-.262-.941-.943.807-2.279-.806-3.493-1.212.4.27-2.281,3.094-2.807,3.768-.119,1.075,1.078.673-1.474,1.211-1.472,4.978-2.4,2.287.009.269-1.073-2.017-2.559-.942-.406V49.093l1.346.005.806-1.2-.673-1.748,1.21-.666,1.48,2.154,2.153.009,1.076,1.749,1.75.007,1.344,1.079,1.346-.934-.539-2.15,1.614.141.4-1.744ZM228.591,93.854l-.114-2.689-.566.054-.067.671-.676.463.62,1.617Zm-1.47,4.193,1.657-.273.193-2.787-.831-.6-.748.559-.7.04Zm5.081.554-.269.737,2.422,2.225.942,0-.538-1.21.673-.535ZM195.18,47.858l2.155.269,1.077-2.688-1.347-2.957-8.081,1.612-2.155-.806L185.751,44.9l1.347.537.539,2.956,4.58,1.344Zm-9.967-13.171-.808-.806L184.943,32l1.886,1.882,2.155.269-.539-5.107-1.078-1.613,3.5-1.344,1.347-5.107L190.6,19.1l3.232-1.075-1.617-1.882L190.6,15.6l2.424-3.494-.539-2.15,4.041-.269L194.91,8.347l3.771-.807,1.347-1.075-3.771-1.344-1.617.807-2.424-.269L189.253,7.54l.539-1.612-1.077-.807L184.673,6.2l2.963-2.688L190.6,3.24l-5.388-1.882L178.747-.254l-6.2.269L170.4,1.358,164.2.552,163.123,2.7l1.616,1.613L160.7,3.777H158l1.078,2.15-2.424-1.613-.808,1.075-1.885-1.612-5.927.806L146.152,7l-1.616-.537-3.771,1.882-.808,1.612,2.425-.537-1.616,2.419-9.159,2.15,2.155,2.15h4.31l-.808,1.075L134.3,18.291l1.886,1.613,4.849-.537,5.388,1.344,3.771,7.795-.539,2.419h2.155l.808,1.613-2.424.538-.269,1.882,2.963.269-.539,1.881-2.155,1.344-.269,6.182,3.232,7.526,2.424,2.688,2.155-.806v2.15l3.233.806,2.155-5.913,3.232-5.913,1.886-.537,1.886-1.075,1.885.269,2.694-2.688,1.616-2.419,2.963.269,8.62-3.763Zm-55.628-4.032-.808.807-1.482.4.539-1.21-2.424-2.15-2.694,1.344-1.078-.806-1.212.134-1.347.941.674-1.747.539-1.478-3.367-.538-2.29,1.612-.269,2.822-.943-2.419,1.886-2.016-4.175.134-2.424,3.226.134,1.747,1.482.538-1.482.672,1.751,2.016,1.212-.672,2.155.807.943.672,4.984-.135.943-1.344,2.424,1.075.269,2.284,3.367,2.285.135,2.419-1.886,1.21V44.9l-2.29.4-1.616-.672-2.424.941,1.347,1.881,1.751.134.539-.806,1.616.134,6.062,5.376,3.367.4L131.336,49.6l2.559,1.344.4-3.226-2.29-2.822,1.616-1.478,3.1,2.15,3.232-3.226-3.771-3.091-2.021-.537-.673-1.478,1.751-.537-2.021-2.15-1.885-.4V32.134Zm-60.476.4,2.963-.4L74.9,28.237l4.041-2.285-1.482-1.613-2.963.807L72.071,23.8l-2.828,1.075v1.747l-2.694,2.688,1.077,2.419Zm25.053,2.554L91.6,32.671l-.943-4.435L88.5,26.221l-.943.269-.673,4.569-1.212-.4V27.565H84.6L83.52,28.908l-1.077-.941-1.212-.134-.943.538-.674-2.285L74.63,29.312,74.5,31.193l.673.672-.135,1.075,3.637.537-2.829.4-1.077,1.478,1.212.806,1.617-.269,1.482,1.478,3.637.269L85,36.972l2.29-1.478,3.367,1.747,1.482.134-.135-1.881,2.155-.4Zm184.25-.518.54,1.344,2.155.806,1.886-1.613-1.886-1.613.54-4.3,4.31-3.763,5.118-1.344,2.963-1.882V18.849H292.42L290,20.193h-3.233l-5.657,3.226-3.5,5.644-1.617,1.882.27,1.613Zm45.8-24.459L322.051,7.56l-1.077,1.075h-1.617l-1.076,1.613,4.849.269Zm-2.694,3.226,6.735,2.419-.269-2.957-3.772-.806Zm13.739,2.419-3.772-1.613-1.616,1.881v1.881l5.388-.537ZM383.74,24.762l-.808-1.882L379.7,21.805h-5.119l1.347,3.225Zm8.351.269-4.041-2.688-2.694.537,3.233,2.419Zm-8.351,3.763-1.077-2.419-2.694.538Zm12.931,42.468,1.347,5.376.269,5.375,1.617,3.763.808-1.344-.539-3.226.539-1.344,1.886,1.881-5.119-11.558Zm3.5,15.858.539,2.956-2.156,1.075.539,2.15,2.156-1.344,1.886,1.075L405.291,89l-2.424-.269Zm-5.12,16.4-3.232.537-1.886,2.419,2.156.538,2.155-1.075,1.616,1.613,2.964-1.613,2.963-.537v-5.376l1.347-2.15-2.424-3.763-1.617,1.344.809,1.882-.27,2.688-2.424,2.15-1.347-.537Zm-4.309,7.526.539-2.688-1.077-.806-2.156,1.344Zm2.155-3.494v1.612l1.886-1.075-.808-1.075Zm24.245,63.7-3.233-1.613-.539-1.881-10.236-3.225-2.424,1.075-.539,1.344-1.347-1.075-.54-2.957-2.963-.806-1.616,2.15,2.424,1.344-.539,1.344,1.077,1.612,1.077-1.075,2.425,1.344,2.693,1.075,1.616,3.225-1.885.538,1.076,1.612,2.424-.269,1.347,1.344,3.772.538-.269-1.613,1.616-1.075,1.886.806,1.077,2.419,4.31.807-3.771-4.569,1.346-.807Zm-11.853,56.714-.269,5.644,2.155-1.075,1.616-3.495-1.886.269Zm30.44-3.293-2.155,4.031-4.041,1.613-4.309,4.569h1.346l1.886,1.344,4.04-4.57,1.887-1.075,3.232-4.031L436.54,224.4Zm7.812-4.032-1.347-1.612-2.155-4.838.807,5.107-1.346,2.687-1.347,1.344,1.077.538-.808,1.881,1.347.537,6.736-6.182-1.347-.806ZM125.14,248.37l.808,4.031,2.155,1.344,2.963-1.075-3.232-1.344Zm-2.694,1.075,2.155,2.15-1.078-2.688Zm13.2-2.419,2.424.537.808-1.613h-2.155ZM111.345,44.35l-.957.637-.319,1.591-1.276,2.865,1.595.318,1.595-.636.957-1.273,2.552.955,1.276-1.592-2.233-1.273Zm-12.122-14,1.914-.319.638-1.273L100.5,27.163l-.319-2.546-3.19.318.319,1.91-2.233-.319v1.91l1.914,2.228Zm-21.054-10.5,3.509-2.864-.638-.955-3.19.955-2.233,1.273-1.914.318,2.552,1.591ZM88.7,18.569l-.957,1.591L85.5,18.887H81.677L80.4,21.115l.957.955H83.91l.957,1.909,1.914-1.273,2.233-.636H92.2l1.595-.955V19.523l-2.233-.318L90.29,17.614ZM87.1,16.59l1.595-.25.957-1.247-1.914-.5-2.552.5.319,1.247Zm15.631,10.254,1.595,1.591,2.233-1.273,1.914-.955-.319-1.91h-2.233l-2.233.636Zm14.674-19.1,3.509.636,4.147-.636L122.51,9.338l-2.552.319-1.914.636,1.914,1.91-1.276.955h-.957l-.957.955,1.914.955-1.914.318-1.595.955L113.9,17.932l.319.955h4.466l1.914.955,4.147-.637.319-2.865,1.276-.318,2.233-.954.957-2.547,2.233-1.273,4.466-2.228,3.828-1.91V5.519h2.233l2.871-1.273.957-1.273-1.595-.955-2.233-.955h-6.38l-6.7.318-4.466.955-3.828,1.273h-3.19l-1.914.318-1.6,1.909,1.276.955Zm-1.914,13.369-3.19.318-1.595-2.864-.957-.318L108.473,20.8l-.319,1.591,2.552,1.273,3.19-.318,5.423-.318,3.19-.318-.319-1.591L120.6,19.842l-1.914,1.273Zm-17.226-1.91.638,1.273V22.07h2.233l1.6-1.592-.638-1.591-2.233-.636Zm.638-5.093,1.276.955.957-.637.319-.955L98.9,11.885l-3.19.636v1.273l1.276.318Zm11.8-3.183-1.276,1.909.319.955,1.914.636,2.233-.636,2.552-.955,1.276-1.273-.638-1.91-1.595-.636L113.9,7.11,112.62,5.519h-1.595L109.111,7.11,107.516,8.7l-.638,1.909,1.914.637Zm-5.742,12.095,1.595.318.319-1.591L105.6,20.478l-1.595,1.273Zm2.233-3.819.957-.955-1.914-1.273h-1.595l-.319.954,1.276.637Zm-.638-4.138.638-1.273L105.6,12.521h-1.914l-.638,1.273,1.276.955Zm-15.95-1.273V12.521H88.376l-1.276.637,1.276.636Zm141.637.636-.638,1.91,2.552,1.91,1.595-2.228,1.595-1.273,1.595.636.638,1.273,1.6.955,2.233-.319V16.022l-2.871-1.273-1.914-1.591h-2.233l-1.914-1.91-.638,2.228-1.276-1.909-2.552-.636-2.233.636v2.228l2.233.318Zm6.38-1.645,4.467-.562,2.551-.281V10.537l-1.276-1.406-2.551.562-2.872.281-2.871-.281-1.276.281,1.914,1.687Z" fill="#fff"/>
</svg>
