<svg id="illustration-ceq-indicators" xmlns="http://www.w3.org/2000/svg" width="240" height="80" viewBox="0 0 240 80">
  <title>illustration-ceq-indicators</title>
  <polygon points="231 77 231 30 217 30 217 77 215 77 215 10 201 10 201 77 199 77 199 16 185 16 185 77 183 77 183 25 169 25 169 77 167 77 167 39 153 39 153 77 151 77 151 30 137 30 137 77 135 77 135 54 121 54 121 77 119 77 119 50 105 50 105 77 103 77 103 20 89 20 89 77 87 77 87 10 73 10 73 77 71 77 71 40 57 40 57 77 55 77 55 0 41 0 41 77 39 77 39 30 25 30 25 77 23 77 23 20 9 20 9 77 0 77 0 80 240 80 240 77 231 77" fill="#fff"/>
</svg>
