<svg id="illustration-sdg" xmlns="http://www.w3.org/2000/svg" width="215.2" height="105.602" viewBox="0 0 215.2 105.602">
  <title>illustration-sdg</title>
  <g>
    <g>
      <rect x="55.205" y="54.4" width="51.2" height="51.2" rx="3.2" ry="3.2" fill="#fff"/>
      <g>
        <g>
          <path d="M87.148,81.993H74.463a.145.145,0,0,0-.137.151v3.814a.137.137,0,0,0,.137.151H87.148a.145.145,0,0,0,.137-.151V82.144a.145.145,0,0,0-.137-.151" fill="#d46e87"/>
          <path d="M87.148,73.884H74.463a.145.145,0,0,0-.137.151v3.814a.137.137,0,0,0,.137.151H87.148a.145.145,0,0,0,.137-.151V74.036a.145.145,0,0,0-.137-.151" fill="#d46e87"/>
        </g>
        <g>
          <path d="M86.969,68.119l-6.088-6.088a.108.108,0,0,0-.151,0l-6.088,6.088a.108.108,0,0,0,0,.151.1.1,0,0,0,.076.027H86.893a.106.106,0,0,0,.1-.1A.1.1,0,0,0,86.969,68.119Z" fill="#d46e87"/>
          <path d="M92.686,86.164l6.088-6.088a.108.108,0,0,0,0-.151h0l-6.088-6.088a.108.108,0,0,0-.151,0,.1.1,0,0,0-.027.076V86.088a.106.106,0,0,0,.1.1A.082.082,0,0,0,92.686,86.164Z" fill="#d46e87"/>
          <path d="M74.641,91.881l6.088,6.088a.1.1,0,0,0,.144,0h0l6.088-6.088a.108.108,0,0,0,0-.151.11.11,0,0,0-.076-.034H74.717a.112.112,0,0,0-.11.1A.114.114,0,0,0,74.641,91.881Z" fill="#d46e87"/>
          <path d="M68.924,73.836l-6.088,6.088a.108.108,0,0,0,0,.151h0l6.088,6.088a.108.108,0,0,0,.151,0,.1.1,0,0,0,.027-.076V73.912a.106.106,0,0,0-.1-.1A.1.1,0,0,0,68.924,73.836Z" fill="#d46e87"/>
        </g>
      </g>
    </g>
    <g>
      <path d="M157.6,56.4a1.2,1.2,0,0,1,1.2,1.2v44.8a1.2,1.2,0,0,1-1.2,1.2H112.8a1.2,1.2,0,0,1-1.2-1.2V57.6a1.2,1.2,0,0,1,1.2-1.2h44.8m0-2H112.8a3.2,3.2,0,0,0-3.2,3.2v44.8a3.2,3.2,0,0,0,3.2,3.2h44.8a3.2,3.2,0,0,0,3.2-3.2V57.6a3.2,3.2,0,0,0-3.2-3.2Z" fill="#fff"/>
      <g>
        <path d="M146.547,63.1a2.461,2.461,0,0,0-.47,1.73,2.424,2.424,0,0,0,1.166,1.362,2.461,2.461,0,0,0,.47-1.73,2.424,2.424,0,0,0-1.166-1.362" fill="#fff"/>
        <path d="M145.474,68.092a2.461,2.461,0,0,0,.47-1.73A2.424,2.424,0,0,0,144.778,65a2.461,2.461,0,0,0-.47,1.73,2.424,2.424,0,0,0,1.166,1.362" fill="#fff"/>
        <path d="M148.183,67.161a2.166,2.166,0,0,0,1.487.634,2.261,2.261,0,0,0,1.378-.884,2.166,2.166,0,0,0-1.487-.634,2.261,2.261,0,0,0-1.378.884" fill="#fff"/>
        <path d="M149.325,63.412a2.636,2.636,0,0,0-.556,1.808,2.493,2.493,0,0,0,1.785-.556,2.628,2.628,0,0,0,.556-1.808,2.527,2.527,0,0,0-1.785.556" fill="#fff"/>
        <path d="M147.9,69.759a2.262,2.262,0,0,0,1.534-.587,2.179,2.179,0,0,0-1.331-.924,2.262,2.262,0,0,0-1.534.587,2.179,2.179,0,0,0,1.331.924" fill="#fff"/>
        <path d="M148.605,83.464h-5.9a.837.837,0,1,0,0,1.675h5.9a.837.837,0,1,0,0-1.675" fill="#fff"/>
        <path d="M148.605,92.661h-5.9a.837.837,0,1,0,0,1.675h5.9a.837.837,0,1,0,0-1.675" fill="#fff"/>
        <path d="M122.08,81.437a3.866,3.866,0,0,0-.407-.1s.149.047.407.1" fill="#fff"/>
        <path d="M148.386,85.718h-5.463a.479.479,0,0,0-.477.477v1.659l-3.569.391-5.213-.117V84.936a13.349,13.349,0,0,0,2.074-.423,7.969,7.969,0,0,0,6-8.437c-.11-2.919.83-4.054,2.168-4.563a6.134,6.134,0,0,1,1.111-.3,8.7,8.7,0,0,0,.485,2.544c.117-.008.235-.016.352-.031a8.546,8.546,0,0,1-.493-2.567,6.7,6.7,0,0,1,1.19-.039,7.65,7.65,0,0,1-1.135-.806,5.68,5.68,0,0,1,1.9-3.107,10.262,10.262,0,0,0,1.331-1.558l-.3-.188a9.857,9.857,0,0,1-1.284,1.5,6.092,6.092,0,0,0-1.949,3.092,11.272,11.272,0,0,1-.861-.869c-1.237-1.385-2.833-.368-5.1,1.745s-5.127,2.184-7.921-.665c-3.679-3.773-6.9-3.749-9.095-3.538,1.5.642,2.035,2.051,2.794,5.628.8,3.757,2.818,5.455,5.573,5.69-1.534.54-1.612,1.409-3.663,2.825-1.6,1.1-3.866.759-4.774.548,1.683.524,3.671,2.285,5.447,2.9a13.169,13.169,0,0,0,3.248.665v3.045l-9.322-.2V89.96l17.438-.4,3.569.391V91.6a.474.474,0,0,0,.477.477h5.463a.474.474,0,0,0,.477-.477V86.188A.485.485,0,0,0,148.386,85.718Zm-16.749-.665c.391.008.783-.008,1.166-.031v3.084l-1.166-.023Z" fill="#fff"/>
        <path d="M120.929,89.616a.765.765,0,0,1-.7.814h-.423a.76.76,0,0,1-.7-.814V88.145a.765.765,0,0,1,.7-.814h.423a.76.76,0,0,1,.7.814Z" fill="#fff"/>
      </g>
    </g>
    <g>
      <path d="M48,56.4a1.2,1.2,0,0,1,1.2,1.2v44.8a1.2,1.2,0,0,1-1.2,1.2H3.2A1.2,1.2,0,0,1,2,102.4V57.6a1.2,1.2,0,0,1,1.2-1.2H48m0-2H3.2A3.2,3.2,0,0,0,0,57.6v44.8a3.2,3.2,0,0,0,3.2,3.2H48a3.2,3.2,0,0,0,3.2-3.2V57.6A3.2,3.2,0,0,0,48,54.4Z" fill="#fff"/>
      <path d="M42.758,78.2a9.012,9.012,0,0,0-8.674-8.992,9,9,0,0,0-16.975,0A8.994,8.994,0,0,0,11.918,85.3a9,9,0,0,0,13.733,9.925,9,9,0,0,0,14-7.485,9.128,9.128,0,0,0-.339-2.447A9.059,9.059,0,0,0,42.758,78.2m-9.973-6a7.2,7.2,0,0,1-6.131,7.105,7.387,7.387,0,0,1-.1-1.106A7.2,7.2,0,0,1,32.688,71.1a6.576,6.576,0,0,1,.1,1.106m-7.154,20.68a7.172,7.172,0,0,1-.173-10.139l.1-.1a7.164,7.164,0,0,1,.173,10.132c-.035.041-.069.076-.1.111M18.5,71.1A7.2,7.2,0,0,1,24.629,78.2a6.577,6.577,0,0,1-.1,1.106A7.2,7.2,0,0,1,18.408,72.2,7.381,7.381,0,0,1,18.5,71.1m5.363,10.319a7.162,7.162,0,0,1-9.6,3.221c-.041-.021-.083-.041-.117-.062a7.162,7.162,0,0,1,9.6-3.221c.035.021.076.041.117.062m3.449-.048a7.167,7.167,0,0,1,9.676,3.013c.035.062.062.124.1.187a7.167,7.167,0,0,1-9.676-3.013c-.035-.062-.069-.124-.1-.187M25.6,65.017a7.186,7.186,0,0,1,6.587,4.32A9.035,9.035,0,0,0,25.6,74.4,9.046,9.046,0,0,0,19,69.337a7.2,7.2,0,0,1,6.594-4.32M10.253,78.2a7.2,7.2,0,0,1,6.421-7.147,8.969,8.969,0,0,0,2.861,7.8,9.041,9.041,0,0,0-6.9,4.679A7.192,7.192,0,0,1,10.253,78.2M13.37,87.8a7.256,7.256,0,0,1,.159-1.493,8.965,8.965,0,0,0,8.259-.228A8.963,8.963,0,0,0,24.18,93.99,7.178,7.178,0,0,1,13.37,87.8m24.453-.062a7.172,7.172,0,0,1-10.734,6.241,8.965,8.965,0,0,0,2.3-7.907,8.981,8.981,0,0,0,8.287.228,7.2,7.2,0,0,1,.145,1.438m-6.11-8.93a8.947,8.947,0,0,0,2.813-7.748,7.179,7.179,0,0,1,4.057,12.462,9.028,9.028,0,0,0-6.87-4.714" fill="#fff"/>
    </g>
    <g>
      <path d="M103.2,2a1.2,1.2,0,0,1,1.2,1.2V48a1.2,1.2,0,0,1-1.2,1.2H58.4A1.2,1.2,0,0,1,57.2,48V3.2A1.2,1.2,0,0,1,58.4,2h44.8m0-2H58.4a3.2,3.2,0,0,0-3.2,3.2V48a3.2,3.2,0,0,0,3.2,3.2h44.8a3.2,3.2,0,0,0,3.2-3.2V3.2A3.2,3.2,0,0,0,103.2,0Z" fill="#fff"/>
      <g>
        <g>
          <path d="M94.172,13.923a2.352,2.352,0,1,0-2.352,2.352h0a2.349,2.349,0,0,0,2.352-2.352" fill="#fff"/>
          <path d="M87.08,19.256,85.123,25.63s-.35,1.167.637,1.454,1.284-.844,1.284-.844l1.58-5.315s.09-.413.4-.323.189.521.189.521L86.46,31.089h2.55v7.137a1.23,1.23,0,0,0,2.46,0h0V31.08h.7v7.137a1.226,1.226,0,0,0,2.451,0V31.08H97.18l-2.747-9.965s-.117-.44.189-.521.4.323.4.323l1.58,5.315s.3,1.14,1.284.844.637-1.454.637-1.454L96.56,19.247s-.7-1.84-2.244-1.84H89.324c-1.544.009-2.244,1.849-2.244,1.849" fill="#fff"/>
        </g>
        <g>
          <path d="M70.669,15.109a2.487,2.487,0,1,0-2.487-2.487h0A2.492,2.492,0,0,0,70.669,15.109Z" fill="#fff"/>
          <path d="M73.586,16.051a1.491,1.491,0,0,0-.2-.027H67.957l-.18.027a3.325,3.325,0,0,0-3.008,3.313v6.895a.971.971,0,0,0,.5.853.319.319,0,0,0-.036.081l-2.209,11.7a.36.36,0,0,0,.278.422h.009c.018,0,.045.009.072.009a.366.366,0,0,0,.359-.3l2.209-11.7a.679.679,0,0,0-.009-.135.944.944,0,0,0,.709-.934V20.334c0-.224.054-.521.467-.521.278,0,.341.3.341.485V38.029a1.392,1.392,0,0,0,2.783,0V27.821a.389.389,0,0,1,.377-.4h.036a.359.359,0,0,1,.386.4V38.038a1.392,1.392,0,0,0,2.783,0V20.307c0-.189.063-.485.341-.485.413,0,.467.3.467.521v5.916a.988.988,0,0,0,1.975,0V19.364A3.334,3.334,0,0,0,73.586,16.051Z" fill="#fff"/>
        </g>
        <g>
          <path d="M83.192,30.335l1.814-3.3a3.412,3.412,0,0,0,.215-.584.726.726,0,0,0-.727-.709.7.7,0,0,0-.593.332h-.009c-.054.045-.97,1.67-1.275,1.975a.749.749,0,0,1-.6.278h-2.37a.749.749,0,0,1-.6-.278c-.305-.305-1.212-1.93-1.275-1.975l-.009.009a.722.722,0,0,0-1-.206.708.708,0,0,0-.323.575,1.231,1.231,0,0,0,.072.314l1.975,3.573a1.234,1.234,0,0,1,.117.467v.7l-1.041,3.825H78.6v3.142H78.6a.979.979,0,0,0,.979.97.966.966,0,0,0,.979-.961V35.452a.161.161,0,0,1-.036-.126h.584a.288.288,0,0,1-.009.126v3.025a.988.988,0,1,0,1.975,0V35.326H84.09l-1.006-3.842V30.8A1.467,1.467,0,0,1,83.192,30.335Z" fill="#fff"/>
          <path d="M80.831,27.094a1.957,1.957,0,1,0-1.957-1.957,1.956,1.956,0,0,0,1.957,1.957Z" fill="#fff"/>
        </g>
      </g>
    </g>
    <g>
      <path d="M212,56.358a1.2,1.2,0,0,1,1.2,1.2v44.8a1.2,1.2,0,0,1-1.2,1.2H167.2a1.2,1.2,0,0,1-1.2-1.2v-44.8a1.2,1.2,0,0,1,1.2-1.2H212m0-2H167.2a3.2,3.2,0,0,0-3.2,3.2v44.8a3.2,3.2,0,0,0,3.2,3.2H212a3.2,3.2,0,0,0,3.2-3.2v-44.8a3.2,3.2,0,0,0-3.2-3.2Z" fill="#fff"/>
      <g>
        <path id="_Path_3" data-name=" Path 3" d="M183.85,93.077v.973a.431.431,0,0,0,.43.417h10.958a.439.439,0,0,0,.43-.437h0V92.971a16.988,16.988,0,0,0,11.759-13.063.287.287,0,0,1,.007-.033.183.183,0,0,0,.007-.06.443.443,0,0,0-.443-.443H172.2a.442.442,0,0,0-.443.437h0l.026.2A17.049,17.049,0,0,0,183.85,93.077" fill="#fff"/>
        <path id="_Path_4" data-name=" Path 4" d="M195.655,64.523c-.146.205-3.507,5.042.073,8.953,1.641,1.793,1.5,3.381,1.032,4.447h2.3a5.657,5.657,0,0,0-1.588-5.6c-2.64-2.885.033-6.783.073-6.842a.859.859,0,0,0-.371-1.284,1.228,1.228,0,0,0-1.515.324" fill="#fff"/>
        <path id="_Path_5" data-name=" Path 5" d="M189.838,77.929h2.3a5.648,5.648,0,0,0-1.595-5.6c-2.64-2.885.033-6.783.073-6.842a.864.864,0,0,0-.371-1.284,1.207,1.207,0,0,0-1.509.318c-.146.205-3.507,5.042.073,8.953,1.641,1.8,1.5,3.381,1.032,4.453" fill="#fff"/>
        <path id="_Path_6" data-name=" Path 6" d="M181.811,64.523c-.146.205-3.507,5.042.073,8.953,1.641,1.8,1.5,3.381,1.032,4.447h2.3a5.648,5.648,0,0,0-1.595-5.6c-2.64-2.885.033-6.783.073-6.842a.861.861,0,0,0-.377-1.284,1.208,1.208,0,0,0-1.5.324" fill="#fff"/>
      </g>
    </g>
  </g>
</svg>
