<svg id="illustration-disagregated-data" xmlns="http://www.w3.org/2000/svg" width="243" height="87" viewBox="0 0 243 87">
  <title>illustration-disagregated-data</title>
  <g>
    <path d="M240,3V21H3V3H240m3-3H0V24H243V0Z" fill="#fff"/>
    <line x1="243" y1="46" y2="46" fill="none" stroke="#fff" stroke-miterlimit="10" stroke-width="3"/>
    <line x1="243" y1="68" y2="68" fill="none" stroke="#fff" stroke-miterlimit="10" stroke-width="3"/>
    <line x1="81.532" x2="81.532" y2="87" fill="none" stroke="#fff" stroke-miterlimit="10" stroke-width="3"/>
    <line x1="161.064" x2="161.064" y2="87" fill="none" stroke="#fff" stroke-miterlimit="10" stroke-width="3"/>
    <path d="M37.072,11.868a3.9,3.9,0,0,1-1.914-.474,3.505,3.505,0,0,1-1.364-1.353,4.117,4.117,0,0,1-.506-2.09,4.115,4.115,0,0,1,.506-2.09,3.5,3.5,0,0,1,1.364-1.354,3.937,3.937,0,0,1,1.936-.473,3.835,3.835,0,0,1,1.9.473A3.524,3.524,0,0,1,40.35,5.862a4.115,4.115,0,0,1,.507,2.09,4.117,4.117,0,0,1-.507,2.09,3.509,3.509,0,0,1-1.363,1.353A3.9,3.9,0,0,1,37.072,11.868Zm0-1.959a1.453,1.453,0,0,0,1.1-.494,2.075,2.075,0,0,0,.462-1.463,2.15,2.15,0,0,0-.451-1.475,1.473,1.473,0,0,0-2.222,0,2.15,2.15,0,0,0-.451,1.475,2.106,2.106,0,0,0,.451,1.463A1.443,1.443,0,0,0,37.072,9.909ZM36.236,19.7,44.926,4.3h2.75L38.986,19.7Zm10.691.264a3.908,3.908,0,0,1-1.914-.473,3.512,3.512,0,0,1-1.363-1.354,4.115,4.115,0,0,1-.507-2.09,4.057,4.057,0,0,1,.507-2.079,3.537,3.537,0,0,1,1.363-1.343,3.954,3.954,0,0,1,1.937-.473,3.841,3.841,0,0,1,1.9.473,3.566,3.566,0,0,1,1.354,1.343,4.066,4.066,0,0,1,.506,2.079,4.125,4.125,0,0,1-.506,2.09,3.54,3.54,0,0,1-1.354,1.354A3.888,3.888,0,0,1,46.928,19.964Zm0-1.958a1.444,1.444,0,0,0,1.111-.5,2.1,2.1,0,0,0,.451-1.463,2.15,2.15,0,0,0-.451-1.475,1.473,1.473,0,0,0-2.222,0,2.15,2.15,0,0,0-.451,1.475,2.1,2.1,0,0,0,.451,1.463A1.442,1.442,0,0,0,46.928,18.006Z" fill="#fff"/>
  </g>
</svg>
