<svg id="illustration-country-comparison" xmlns="http://www.w3.org/2000/svg" width="138" height="154" viewBox="0 0 138 154">
  <title>illustration-country-comparison</title>
  <g>
    <g>
      <polygon points="32.125 83.267 38.875 83.267 35.5 76.517 32.125 83.267" fill="#fff"/>
      <path d="M51.478,61.138l-23.5-13.3a3,3,0,0,0-2.956,0l-23.5,13.3A3,3,0,0,0,0,63.749v26.5a3,3,0,0,0,1.522,2.611l23.5,13.3a3,3,0,0,0,2.956,0l23.5-13.3A3,3,0,0,0,53,90.251v-26.5A3,3,0,0,0,51.478,61.138ZM11.5,78.017h0c0-.759-.062-.409,3.986-8.508a2.252,2.252,0,0,1,4.025,0C23.6,77.677,23.5,77.283,23.5,78.017h0c0,2.071-2.687,3.75-6,3.75S11.5,80.088,11.5,78.017ZM28,70.951V87.017a.75.75,0,0,1-.75.75H16.75a.75.75,0,0,1-.75-.75v-1.5a.75.75,0,0,1,.75-.75H25V70.951a3.748,3.748,0,0,1-2.034-2.226L16.778,66.65a.751.751,0,0,1-.473-.949l.478-1.422a.749.749,0,0,1,.949-.473l5.528,1.854A3.709,3.709,0,0,1,30.2,67.987l6.019,2.019a.751.751,0,0,1,.473.949l-.478,1.423a.75.75,0,0,1-.949.472l-6.658-2.232A3.8,3.8,0,0,1,28,70.951Zm7.5,16.816c-3.313,0-6-1.679-6-3.75h0c0-.759-.062-.409,3.986-8.508a2.252,2.252,0,0,1,4.025,0C41.6,83.677,41.5,83.283,41.5,84.017h0C41.5,86.088,38.813,87.767,35.5,87.767Z" fill="#fff"/>
      <polygon points="17.5 70.517 14.125 77.267 20.875 77.267 17.5 70.517" fill="#fff"/>
    </g>
    <g>
      <path d="M43.313,26.365a2.75,2.75,0,0,0,2.75-2.75h-2.75Z" fill="#fff"/>
      <ellipse cx="55" cy="29.803" rx="3.438" ry="4.125" fill="#fff"/>
      <path d="M43.313,33.24v2.75h2.75A2.75,2.75,0,0,0,43.313,33.24Z" fill="#fff"/>
      <path d="M63.938,35.99h2.75V33.24A2.75,2.75,0,0,0,63.938,35.99Z" fill="#fff"/>
      <path d="M79.978,13.691,56.478.389a3,3,0,0,0-2.956,0l-23.5,13.3A3,3,0,0,0,28.5,16.3V42.8a3,3,0,0,0,1.522,2.611l23.5,13.3a3,3,0,0,0,2.956,0l23.5-13.3A3,3,0,0,0,81.5,42.8V16.3A3,3,0,0,0,79.978,13.691ZM68.75,36.678a1.376,1.376,0,0,1-1.375,1.375H42.625a1.376,1.376,0,0,1-1.375-1.375V22.928a1.376,1.376,0,0,1,1.375-1.375h24.75a1.376,1.376,0,0,1,1.375,1.375Z" fill="#fff"/>
      <path d="M66.688,26.365v-2.75h-2.75A2.75,2.75,0,0,0,66.688,26.365Z" fill="#fff"/>
    </g>
    <path d="M136.478,13.691l-23.5-13.3a3,3,0,0,0-2.956,0l-23.5,13.3A3,3,0,0,0,85,16.3V42.8a3,3,0,0,0,1.522,2.611l23.5,13.3a3,3,0,0,0,2.956,0l23.5-13.3A3,3,0,0,0,138,42.8V16.3A3,3,0,0,0,136.478,13.691ZM106,16.053a3,3,0,1,1-3,3A3,3,0,0,1,106,16.053Zm4.5,15.375a1.125,1.125,0,0,1-1.125,1.125h-.75v6.375a1.125,1.125,0,0,1-1.125,1.125h-3a1.125,1.125,0,0,1-1.125-1.125V32.553h-.75a1.125,1.125,0,0,1-1.125-1.125V25.053a2.251,2.251,0,0,1,2.25-2.25h.532a4.121,4.121,0,0,0,3.436,0h.532a2.251,2.251,0,0,1,2.25,2.25ZM118,16.053a3,3,0,1,1-3,3A3,3,0,0,1,118,16.053Zm4.5,18h-2.625v4.875a1.125,1.125,0,0,1-1.125,1.125h-1.5a1.125,1.125,0,0,1-1.125-1.125V34.053H113.5a1.125,1.125,0,0,1-1.092-1.4l2.25-9a1.184,1.184,0,0,1,1.092-.853h.532a4.121,4.121,0,0,0,3.436,0h.532a1.184,1.184,0,0,1,1.092.853l2.25,9A1.126,1.126,0,0,1,122.5,34.053Z" fill="#fff"/>
    <g>
      <circle cx="87.75" cy="82.517" r="2.25" fill="#fff"/>
      <circle cx="77.25" cy="69.017" r="2.25" fill="#fff"/>
      <path d="M108.478,61.138l-23.5-13.3a3,3,0,0,0-2.956,0l-23.5,13.3A3,3,0,0,0,57,63.749v26.5a3,3,0,0,0,1.522,2.611l23.5,13.3a3,3,0,0,0,2.956,0l23.5-13.3A3,3,0,0,0,110,90.251v-26.5A3,3,0,0,0,108.478,61.138ZM77.25,63.767A5.25,5.25,0,1,1,72,69.017,5.248,5.248,0,0,1,77.25,63.767ZM75.628,87.28a1.258,1.258,0,0,1-.919.478l-1.565,0a1.124,1.124,0,0,1-.923-1.771l17.25-21.736a1.122,1.122,0,0,1,.918-.478l1.481,0a1.125,1.125,0,0,1,.924,1.771Zm12.122.487A5.25,5.25,0,1,1,93,82.517,5.248,5.248,0,0,1,87.75,87.767Z" fill="#fff"/>
    </g>
    <path d="M136.478,108.586l-23.5-13.3a3,3,0,0,0-2.956,0l-23.5,13.3A3,3,0,0,0,85,111.2v26.5a3,3,0,0,0,1.522,2.611l23.5,13.3a3,3,0,0,0,2.956,0l23.5-13.3A3,3,0,0,0,138,137.7V111.2A3,3,0,0,0,136.478,108.586Zm-36.978,9.9a1.125,1.125,0,0,1,1.125-1.125H117.5v-2.25a1.126,1.126,0,0,1,1.921-.8l3.75,3.75a1.128,1.128,0,0,1,0,1.592l-3.75,3.75a1.126,1.126,0,0,1-1.921-.8v-2.25H100.625a1.125,1.125,0,0,1-1.125-1.125Zm24,9.75a1.125,1.125,0,0,1-1.125,1.125H105.5v2.25a1.126,1.126,0,0,1-1.921.8l-3.75-3.75a1.128,1.128,0,0,1,0-1.592l3.75-3.75a1.126,1.126,0,0,1,1.921.8v2.25h16.875a1.125,1.125,0,0,1,1.125,1.125Z" fill="#fff"/>
  </g>
</svg>
