<svg xmlns="http://www.w3.org/2000/svg" width="32" height="32" viewBox="0 0 32 32">
  <title>icon-download_img</title>
  <g id="icon-download_img">
    <path d="M9.906,21.686A1.407,1.407,0,0,1,8.5,20.279V11.842a1.407,1.407,0,0,1,1.406-1.406H22.094A1.407,1.407,0,0,1,23.5,11.842v8.438a1.407,1.407,0,0,1-1.406,1.406Zm.234-7.969a1.641,1.641,0,1,0,1.641-1.641A1.64,1.64,0,0,0,10.141,13.717Zm11.484,6.094V16.529l-2.564-2.563a.35.35,0,0,0-.5,0l-3.971,3.97L12.967,16.31a.35.35,0,0,0-.5,0l-2.1,2.095v1.406Z" fill="#fff"/>
  </g>
</svg>
