<svg xmlns="http://www.w3.org/2000/svg" width="32" height="32" viewBox="0 0 32 32">
  <title>icon-globe</title>
  <g id="icon-globe">
    <path d="M13.075,17.434H10.389a5.693,5.693,0,0,1,0-3h2.688c-.049.492-.077,1-.077,1.5S13.028,16.941,13.075,17.434Zm.1-3.75H10.64a5.817,5.817,0,0,1,3.7-3.318A7.871,7.871,0,0,0,13.171,13.684Zm0,4.5A7.911,7.911,0,0,0,14.343,21.5a5.822,5.822,0,0,1-3.7-3.318Zm.656-3.75H18.17a14.439,14.439,0,0,1,0,3H13.827a14.621,14.621,0,0,1,0-3Zm.1-.75c.34-2.093,1.142-3.562,2.074-3.562s1.734,1.47,2.074,3.563Zm4.148,4.5c-.34,2.093-1.142,3.563-2.074,3.563s-1.734-1.47-2.074-3.562Zm.755-4.5a7.911,7.911,0,0,0-1.172-3.318,5.822,5.822,0,0,1,3.7,3.318Zm0,4.5h2.531a5.825,5.825,0,0,1-3.7,3.318A7.9,7.9,0,0,0,18.831,18.184Zm2.979-2.25a5.761,5.761,0,0,1-.2,1.5H18.923c.049-.492.077-1,.077-1.5s-.028-1.008-.077-1.5h2.688A5.888,5.888,0,0,1,21.811,15.934Z" fill="#3BBD89"/>
  </g>
</svg>
