<svg xmlns="http://www.w3.org/2000/svg" width="60" height="60" viewBox="0 0 60 60">
  <title>icon-download-data_ethnicity</title>
  <g id="icon-download-data_ethnicity">
    <g>
      <path d="M12.648,40.684H7.5a2.5,2.5,0,0,1-2.5-2.5v-2.5a5,5,0,0,1,5-5h5a4.985,4.985,0,0,1,3.523,1.453A11.456,11.456,0,0,0,12.648,40.684Z" fill="#448094"/>
      <circle cx="12.5" cy="23.184" r="5" fill="#67c2e0"/>
      <path d="M45,42.184v2.25a3.751,3.751,0,0,1-3.75,3.75H18.75A3.751,3.751,0,0,1,15,44.434v-2.25a9,9,0,0,1,9-9h.648a12.081,12.081,0,0,0,10.7,0H36A9,9,0,0,1,45,42.184Z" fill="#448094"/>
      <circle cx="30" cy="21.934" r="8.75" fill="#67c2e0"/>
      <path d="M55,35.684v2.5a2.5,2.5,0,0,1-2.5,2.5H47.344a11.428,11.428,0,0,0-5.867-8.547A4.985,4.985,0,0,1,45,30.684h5A5,5,0,0,1,55,35.684Z" fill="#448094"/>
      <circle cx="47.5" cy="23.184" r="5" fill="#67c2e0"/>
    </g>
  </g>
</svg>
