<svg xmlns="http://www.w3.org/2000/svg" width="32" height="32" viewBox="0 0 32 32">
  <title>icon-brand_twitter</title>
  <g id="icon-brand_twitter">
    <path d="M22.365,12.746A9.334,9.334,0,0,1,8,20.6a6.814,6.814,0,0,0,.792.041,6.57,6.57,0,0,0,4.071-1.4A3.284,3.284,0,0,1,9.8,16.969a4.159,4.159,0,0,0,.619.051,3.458,3.458,0,0,0,.863-.111,3.28,3.28,0,0,1-2.63-3.219v-.04a3.312,3.312,0,0,0,1.482.416A3.283,3.283,0,0,1,9.117,9.68a9.318,9.318,0,0,0,6.761,3.432,3.709,3.709,0,0,1-.081-.752,3.282,3.282,0,0,1,5.675-2.243,6.466,6.466,0,0,0,2.082-.792,3.272,3.272,0,0,1-1.442,1.808A6.579,6.579,0,0,0,24,10.624a7.042,7.042,0,0,1-1.645,1.7C22.365,12.461,22.365,12.6,22.365,12.746Z" fill="#1B1B1B"/>
  </g>
</svg>
