<svg xmlns="http://www.w3.org/2000/svg" width="32" height="32" viewBox="0 0 32 32">
  <title>icon-highlight</title>
  <g id="icon-highlight">
    <path d="M12.779,12.934h2.254v3.75h-.75v3.75a.75.75,0,0,1-.75.75h-2.25a.75.75,0,0,1-.75-.75V19.4c.081-3.042,1.439-3.519,1.5-5.718A.757.757,0,0,1,12.779,12.934Zm2.254-1.875v1.125h-2.25V11.059a.375.375,0,0,1,.375-.375h1.5A.375.375,0,0,1,15.033,11.059Zm.75,1.875h1.5v3.75h-1.5Zm4.5-.75h-2.25V11.059a.375.375,0,0,1,.375-.375h1.5a.375.375,0,0,1,.375.375Zm2.25,7.218v1.031a.75.75,0,0,1-.75.75h-2.25a.75.75,0,0,1-.75-.75v-3.75h-.75v-3.75h2.254a.757.757,0,0,1,.748.75C21.094,15.883,22.452,16.361,22.533,19.4Z" fill="#1b1b1b"/>
  </g>
</svg>
