<svg xmlns="http://www.w3.org/2000/svg" width="32" height="32" viewBox="0 0 32 32">
  <title>icon-gdp_per_capita</title>
  <g id="icon-gdp_per_capita">
    <path d="M22.25,13v6.2a.621.621,0,0,1-.63.621.67.67,0,0,1-.2-.031,5.927,5.927,0,0,0-1.81-.269c-2.405,0-4.812,1.218-7.217,1.218a5.774,5.774,0,0,1-2.273-.439.619.619,0,0,1-.368-.574v-6.2a.621.621,0,0,1,.63-.621.665.665,0,0,1,.2.031,5.927,5.927,0,0,0,1.81.269c2.405,0,4.812-1.218,7.217-1.218a5.79,5.79,0,0,1,2.273.438A.622.622,0,0,1,22.25,13Zm-4.687,3.361A1.74,1.74,0,0,0,16,14.486a1.74,1.74,0,0,0-1.562,1.875A1.74,1.74,0,0,0,16,18.236,1.741,1.741,0,0,0,17.563,16.361Z" fill="#fff"/>
  </g>
</svg>
