<svg xmlns="http://www.w3.org/2000/svg" width="32" height="32" viewBox="0 0 32 32">
  <title>icon-chartbar</title>
  <g id="icon-chartbar">
    <path d="M22,19.309v.75a.375.375,0,0,1-.375.375H10.75a.75.75,0,0,1-.75-.75V11.809a.375.375,0,0,1,.375-.375h.75a.375.375,0,0,1,.375.375v7.125H21.625A.375.375,0,0,1,22,19.309Zm-9-2.174v-1.65a.323.323,0,0,1,.3-.3h.9a.323.323,0,0,1,.3.3v1.65a.323.323,0,0,1-.3.3h-.9A.323.323,0,0,1,13,17.135Zm2.25,0v-4.65a.323.323,0,0,1,.3-.3h.9a.323.323,0,0,1,.3.3v4.65a.323.323,0,0,1-.3.3h-.9A.323.323,0,0,1,15.25,17.135Zm2.25,0v-3.15a.323.323,0,0,1,.3-.3h.9a.323.323,0,0,1,.3.3v3.15a.323.323,0,0,1-.3.3h-.9A.322.322,0,0,1,17.5,17.135Zm2.25,0v-5.4a.323.323,0,0,1,.3-.3h.9a.323.323,0,0,1,.3.3v5.4a.323.323,0,0,1-.3.3h-.9A.322.322,0,0,1,19.75,17.135Z" fill="#1b1b1b"/>
  </g>
</svg>
