<svg xmlns="http://www.w3.org/2000/svg" width="32" height="32" viewBox="0 0 32 32">
  <title>icon-change_selection</title>
  <g id="icon-change_selection">
    <path d="M18.344,18.117a.563.563,0,0,1,.246.682,5.546,5.546,0,0,1-1,1.542.56.56,0,0,1-.711.124l-.682-.394a4.009,4.009,0,0,1-1.287.743V21.6a.561.561,0,0,1-.461.554,5.283,5.283,0,0,1-1.779,0A.564.564,0,0,1,12.2,21.6v-.787a4.075,4.075,0,0,1-1.287-.743l-.682.392a.561.561,0,0,1-.71-.124,5.542,5.542,0,0,1-.989-1.54.565.565,0,0,1,.246-.682l.78-.395a4.083,4.083,0,0,1,0-1.485l-.78-.4a.56.56,0,0,1-.246-.68,5.51,5.51,0,0,1,.989-1.542.56.56,0,0,1,.71-.124l.682.394a4.038,4.038,0,0,1,1.287-.743v-.79a.558.558,0,0,1,.459-.551,5.371,5.371,0,0,1,1.781,0,.563.563,0,0,1,.469.553v.788a4.064,4.064,0,0,1,1.287.743l.682-.395a.562.562,0,0,1,.711.125,5.508,5.508,0,0,1,.986,1.542.56.56,0,0,1-.234.682l-.79.394a4.056,4.056,0,0,1,0,1.488ZM12.321,15.74A1.753,1.753,0,0,0,14.8,18.218,1.753,1.753,0,0,0,12.321,15.74Zm7.99.089a.291.291,0,0,1-.354.127,2.592,2.592,0,0,1-.752-.437.289.289,0,0,1-.065-.367l.191-.336a2.027,2.027,0,0,1-.372-.642h-.387a.289.289,0,0,1-.286-.241,2.655,2.655,0,0,1,0-.87.291.291,0,0,1,.286-.243h.387a2.021,2.021,0,0,1,.372-.643l-.191-.335a.288.288,0,0,1,.065-.368,2.593,2.593,0,0,1,.752-.436.29.29,0,0,1,.354.126l.191.335a2.111,2.111,0,0,1,.743,0l.192-.335a.289.289,0,0,1,.354-.126,2.56,2.56,0,0,1,.753.436.292.292,0,0,1,.065.368l-.192.335a2.023,2.023,0,0,1,.373.643h.387a.289.289,0,0,1,.286.241,2.649,2.649,0,0,1,0,.869.292.292,0,0,1-.286.244h-.387a2.029,2.029,0,0,1-.373.642l.192.336a.287.287,0,0,1-.065.367,2.623,2.623,0,0,1-.753.437.29.29,0,0,1-.354-.127l-.192-.335a2.066,2.066,0,0,1-.743,0Zm0,7.006a.29.29,0,0,1-.354.126,2.567,2.567,0,0,1-.752-.436.291.291,0,0,1-.065-.368l.191-.335a2.021,2.021,0,0,1-.372-.643h-.387a.289.289,0,0,1-.286-.241,2.649,2.649,0,0,1,0-.869.292.292,0,0,1,.286-.244h.387a2.027,2.027,0,0,1,.372-.642l-.191-.336a.287.287,0,0,1,.065-.367,2.618,2.618,0,0,1,.752-.437.291.291,0,0,1,.354.127l.191.335a2.066,2.066,0,0,1,.743,0l.192-.335a.29.29,0,0,1,.354-.127,2.584,2.584,0,0,1,.753.437.291.291,0,0,1,.065.367l-.192.336a2.029,2.029,0,0,1,.373.642h.387a.289.289,0,0,1,.286.241,2.655,2.655,0,0,1,0,.87.291.291,0,0,1-.286.243h-.387a2.023,2.023,0,0,1-.373.643l.192.335a.288.288,0,0,1-.065.368,2.6,2.6,0,0,1-.753.436.289.289,0,0,1-.354-.126l-.192-.335a2.111,2.111,0,0,1-.743,0Zm1.184-9.956a.876.876,0,0,0-1.238,1.237A.876.876,0,0,0,21.495,12.879Zm0,7a.876.876,0,0,0-1.238,1.237A.876.876,0,0,0,21.495,19.882Z" fill="#1b1b1b"/>
  </g>
</svg>
