<svg xmlns="http://www.w3.org/2000/svg" width="32" height="32" viewBox="0 0 32 32">
  <title>icon-privacy_policy</title>
  <g id="icon-privacy_policy">
    <path d="M19.1,23.953a1.532,1.532,0,0,1-.6.125H7.5a1.5,1.5,0,0,1-1.5-1.5v-1.3a4.2,4.2,0,0,1,4.2-4.2h.521a5.441,5.441,0,0,0,4.557,0H15.8c.081,0,.156.021.234.025a1.856,1.856,0,0,0-.034.225A8.4,8.4,0,0,0,19.1,23.953ZM9,12.078a4,4,0,1,1,4,4A4,4,0,0,1,9,12.078Zm17,5.25a7.081,7.081,0,0,1-4.153,6.685.972.972,0,0,1-.693,0A7.1,7.1,0,0,1,17,17.328a.846.846,0,0,1,.553-.778l3.6-1.406a.971.971,0,0,1,.693,0l3.6,1.406A.846.846,0,0,1,26,17.328Zm-1.516.456L21.5,16.619v5.909A5.591,5.591,0,0,0,24.484,17.784Z" fill="#1B1B1B"/>
  </g>
</svg>
