<svg xmlns="http://www.w3.org/2000/svg" width="32" height="32" viewBox="0 0 32 32">
  <title>icon-brand_youtube</title>
  <g id="icon-brand_youtube">
    <path d="M24.533,15.59a22.511,22.511,0,0,1-.356,4.135,2.111,2.111,0,0,1-1.509,1.494A50.619,50.619,0,0,1,16,21.578a50.619,50.619,0,0,1-6.668-.359,2.111,2.111,0,0,1-1.509-1.494,22.511,22.511,0,0,1-.356-4.135,22.5,22.5,0,0,1,.356-4.134A2.143,2.143,0,0,1,9.332,9.938,50.619,50.619,0,0,1,16,9.578a50.619,50.619,0,0,1,6.668.359,2.143,2.143,0,0,1,1.509,1.519A22.5,22.5,0,0,1,24.533,15.59Zm-5.818,0-4.46-2.537v5.075Z" fill="#448094"/>
  </g>
</svg>
