<svg xmlns="http://www.w3.org/2000/svg" width="60" height="60" viewBox="0 0 60 60">
  <title>icon-download-data_age</title>
  <g id="icon-download-data_age">
    <g>
      <path d="M41.68,38.184c-3.393,0-3.658,2.5-5.84,2.5-2.164,0-2.457-2.5-5.84-2.5-3.347,0-3.688,2.5-5.82,2.5-2.2,0-2.437-2.5-5.84-2.5s-3.645,2.5-5.84,2.5v-6.25a3.751,3.751,0,0,1,3.75-3.75H17.5V19.434h5v11.25h5V19.434h5v11.25h5V19.434h5v11.25h1.25a3.751,3.751,0,0,1,3.75,3.75v6.25C45.311,40.684,45.058,38.184,41.68,38.184Z" fill="#448094"/>
      <path d="M12.5,50.684v-7.5c3.388,0,3.653-2.5,5.84-2.5s2.441,2.5,5.84,2.5c3.347,0,3.688-2.5,5.82-2.5,2.2,0,2.438,2.5,5.84,2.5s3.653-2.5,5.84-2.5c2.147,0,2.441,2.5,5.82,2.5v7.5Z" fill="#448094"/>
      <path d="M17.5,15.684c0-2.422,2.5-1.8,2.5-5,.938,0,2.5,2.3,2.5,4.375s-1.113,3.125-2.5,3.125A2.492,2.492,0,0,1,17.5,15.684Z" fill="#67c2e0"/>
      <path d="M27.5,15.684c0-2.422,2.5-1.8,2.5-5,.938,0,2.5,2.3,2.5,4.375s-1.113,3.125-2.5,3.125A2.492,2.492,0,0,1,27.5,15.684Z" fill="#67c2e0"/>
      <path d="M37.5,15.684c0-2.422,2.5-1.8,2.5-5,.938,0,2.5,2.3,2.5,4.375s-1.113,3.125-2.5,3.125A2.492,2.492,0,0,1,37.5,15.684Z" fill="#67c2e0"/>
    </g>
  </g>
</svg>
