<svg xmlns="http://www.w3.org/2000/svg" width="60" height="60" viewBox="0 0 60 60">
  <title>icon-download-data_gender</title>
  <g id="icon-download-data_gender">
    <g>
      <path d="M28.25,25.684V36.309a1.875,1.875,0,0,1-1.875,1.875h-1.25V48.809a1.875,1.875,0,0,1-1.875,1.875h-5a1.875,1.875,0,0,1-1.875-1.875V38.184h-1.25a1.875,1.875,0,0,1-1.875-1.875V25.684A3.75,3.75,0,0,1,17,21.934h.888a6.869,6.869,0,0,0,5.725,0H24.5A3.75,3.75,0,0,1,28.25,25.684Z" fill="#448094"/>
      <circle cx="20.75" cy="15.684" r="5" fill="#67c2e0"/>
      <path d="M46.25,40.684H41.875v8.125A1.875,1.875,0,0,1,40,50.684H37.5a1.875,1.875,0,0,1-1.875-1.875V40.684H31.25a1.877,1.877,0,0,1-1.819-2.33l3.75-15A1.972,1.972,0,0,1,35,21.934h.888a6.869,6.869,0,0,0,5.725,0H42.5a1.972,1.972,0,0,1,1.819,1.42l3.75,15A1.876,1.876,0,0,1,46.25,40.684Z" fill="#448094"/>
      <circle cx="38.75" cy="15.684" r="5" fill="#67c2e0"/>
    </g>
  </g>
</svg>
