<svg xmlns="http://www.w3.org/2000/svg" width="60" height="60" viewBox="0 0 60 60">
  <title>icon-download-data_city</title>
  <g id="icon-download-data_city">
    <g>
      <path d="M52.5,27.8V46.365a2.251,2.251,0,0,1-2.25,2.25H9.75a2.251,2.251,0,0,1-2.25-2.25V21.053a1.687,1.687,0,0,1,1.688-1.687H12V13.74a1.125,1.125,0,0,1,1.125-1.125H14.25a1.125,1.125,0,0,1,1.125,1.125v5.625h4.5V13.74A1.125,1.125,0,0,1,21,12.615h1.125A1.125,1.125,0,0,1,23.25,13.74v5.625h4.5V14.3a1.687,1.687,0,0,1,1.688-1.687H39.563A1.687,1.687,0,0,1,41.25,14.3V26.115h9.563A1.687,1.687,0,0,1,52.5,27.8Z" fill="#448094"/>
      <rect x="12" y="23.865" width="4.5" height="4.5" rx="0.844" ry="0.844" fill="#67c2e0"/>
      <rect x="12" y="30.615" width="4.5" height="4.5" rx="0.844" ry="0.844" fill="#67c2e0"/>
      <rect x="12" y="37.365" width="4.5" height="4.5" rx="0.844" ry="0.844" fill="#67c2e0"/>
      <rect x="21" y="23.865" width="4.5" height="4.5" rx="0.844" ry="0.844" fill="#67c2e0"/>
      <rect x="21" y="30.615" width="4.5" height="4.5" rx="0.844" ry="0.844" fill="#fff"/>
      <rect x="21" y="37.365" width="4.5" height="4.5" rx="0.844" ry="0.844" fill="#67c2e0"/>
      <rect x="32.25" y="17.115" width="4.5" height="4.5" rx="0.844" ry="0.844" fill="#fff"/>
      <rect x="32.25" y="23.865" width="4.5" height="4.5" rx="0.844" ry="0.844" fill="#67c2e0"/>
      <rect x="32.25" y="30.615" width="4.5" height="4.5" rx="0.844" ry="0.844" fill="#67c2e0"/>
      <rect x="43.5" y="30.615" width="4.5" height="4.5" rx="0.844" ry="0.844" fill="#67c2e0"/>
      <rect x="43.5" y="37.365" width="4.5" height="4.5" rx="0.844" ry="0.844" fill="#fff"/>
    </g>
  </g>
</svg>
