<svg xmlns="http://www.w3.org/2000/svg" width="32" height="32" viewBox="0 0 32 32">
  <title>icon-download</title>
  <g id="icon-download">
    <path d="M23.533,21.85a.655.655,0,0,1-.656.656H10.189a.655.655,0,0,1-.656-.656V18.787a.655.655,0,0,1,.656-.656H14.2l1.34,1.34a1.4,1.4,0,0,0,1.984,0l1.34-1.34h4.012a.655.655,0,0,1,.656.656ZM17.627,8.506a.655.655,0,0,1,.656.656v4.594h2.4a.546.546,0,0,1,.385.933L16.908,18.85a.53.53,0,0,1-.747,0L12,14.688a.546.546,0,0,1,.386-.933h2.4V9.162a.655.655,0,0,1,.656-.656ZM19.6,20.646a.547.547,0,1,0,.547.547A.548.548,0,0,0,19.6,20.646Zm1.75,0a.547.547,0,1,0,.547.547A.548.548,0,0,0,21.346,20.646Z" fill="#1b1b1b"/>
  </g>
</svg>
