<svg xmlns="http://www.w3.org/2000/svg" width="32" height="32" viewBox="0 0 32 32">
  <title>icon-mail</title>
  <g id="icon-mail">
    <path d="M13.706,16.784C9.56,13.775,9.244,13.51,8.287,12.763A.754.754,0,0,1,8,12.172v-.594a1.5,1.5,0,0,1,1.5-1.5h13a1.5,1.5,0,0,1,1.5,1.5v.594a.749.749,0,0,1-.287.591c-.957.75-1.272,1.013-5.419,4.021-.525.382-1.569,1.307-2.294,1.294C15.275,18.091,14.231,17.166,13.706,16.784ZM24,14.188v6.391a1.5,1.5,0,0,1-1.5,1.5H9.5a1.5,1.5,0,0,1-1.5-1.5V14.19a.187.187,0,0,1,.3-.146c.7.544,1.629,1.234,4.816,3.55.659.481,1.771,1.494,2.881,1.487,1.115.01,2.25-1.024,2.885-1.487,3.188-2.315,4.112-3.01,4.813-3.553A.188.188,0,0,1,24,14.188Z" fill="#448094"/>
  </g>
</svg>
