<svg xmlns="http://www.w3.org/2000/svg" width="32" height="32" viewBox="0 0 32 32">
  <title>icon-low_income_country</title>
  <g id="icon-low_income_country">
    <path d="M21.045,15.777l-2.069,2.012.489,2.842a.626.626,0,0,1-.618.73.634.634,0,0,1-.29-.072L16,19.947l-2.558,1.341a.623.623,0,0,1-.907-.658l.489-2.841-2.068-2.012a.625.625,0,0,1,.347-1.066l2.859-.416,1.277-2.586a.627.627,0,0,1,1.123,0l1.278,2.586,2.858.416A.625.625,0,0,1,21.045,15.777Zm-1.11-.23-2.23-.324-.489-.071L17,14.709l-1-2.017v6.194l.437.23,2,1.046-.382-2.216-.083-.486.354-.344Z" fill="#fff"/>
  </g>
</svg>
