<svg xmlns="http://www.w3.org/2000/svg" width="32" height="32" viewBox="0 0 32 32">
  <title>icon-assessment</title>
  <g id="icon-assessment">
    <path d="M20.141,13.486H11.859a.235.235,0,0,1-.234-.234v-.7a.938.938,0,0,1,.938-.937H13.5V10.6a.235.235,0,0,1,.234-.234h.781a.235.235,0,0,1,.234.234v1.016h2.5V10.6a.235.235,0,0,1,.234-.234h.781a.235.235,0,0,1,.234.234v1.016h.938a.938.938,0,0,1,.938.938v.7A.235.235,0,0,1,20.141,13.486Zm0,.625a.235.235,0,0,1,.234.234v5.078a.938.938,0,0,1-.937.938H12.563a.938.938,0,0,1-.937-.937V14.346a.235.235,0,0,1,.234-.234Z" fill="#fff"/>
  </g>
</svg>
