<svg xmlns="http://www.w3.org/2000/svg" width="32" height="32" viewBox="0 0 32 32">
  <title>icon-close</title>
  <g id="icon-close">
    <path d="M20.442,18.279a.739.739,0,0,1,0,1.043l-.521.521a.739.739,0,0,1-1.043,0L16.533,17.5l-2.346,2.346a.738.738,0,0,1-1.042,0l-.521-.521a.737.737,0,0,1,0-1.043l2.345-2.345-2.345-2.346a.736.736,0,0,1,0-1.042l.521-.521a.736.736,0,0,1,1.042,0l2.346,2.346,2.345-2.346a.737.737,0,0,1,1.043,0l.521.521a.738.738,0,0,1,0,1.042L18.1,15.934Z" fill="#FF613C"/>
  </g>
</svg>
