<svg id="logo-ceq-datacenter" xmlns="http://www.w3.org/2000/svg" width="97" height="31" viewBox="0 0 97 31">
  <title>logo-ceq-datacenter</title>
  <g>
    <g>
      <path d="M32,14V0h4.78a8.381,8.381,0,0,1,4.05.87,5.482,5.482,0,0,1,2.359,2.44A8.287,8.287,0,0,1,43.96,7a8.284,8.284,0,0,1-.771,3.69,5.48,5.48,0,0,1-2.359,2.44,8.381,8.381,0,0,1-4.05.87Zm2.561-2.2h2.1a5.716,5.716,0,0,0,2.779-.57A3.241,3.241,0,0,0,40.9,9.59,6.812,6.812,0,0,0,41.34,7,6.835,6.835,0,0,0,40.9,4.42a3.288,3.288,0,0,0-1.461-1.66,5.637,5.637,0,0,0-2.779-.58h-2.1Z" fill="#8f8989"/>
      <path d="M49.536,14.24a4.7,4.7,0,0,1-2.1-.41,2.836,2.836,0,0,1-1.22-1.09,2.9,2.9,0,0,1-.4-1.5A2.727,2.727,0,0,1,46.9,9a5.131,5.131,0,0,1,3.239-.86h2.521V7.9a1.837,1.837,0,0,0-.58-1.5,2.186,2.186,0,0,0-1.44-.48,2.475,2.475,0,0,0-1.36.37,1.587,1.587,0,0,0-.719,1.09h-2.5a3.479,3.479,0,0,1,.729-1.88,4.084,4.084,0,0,1,1.63-1.23,5.614,5.614,0,0,1,2.24-.43A4.924,4.924,0,0,1,54,4.9a3.764,3.764,0,0,1,1.22,3V14h-2.18l-.24-1.6a3.711,3.711,0,0,1-1.229,1.32A3.634,3.634,0,0,1,49.536,14.24Zm.579-2a2.12,2.12,0,0,0,1.711-.72,3.5,3.5,0,0,0,.77-1.78h-2.18a2.274,2.274,0,0,0-1.46.37,1.145,1.145,0,0,0-.44.91,1.046,1.046,0,0,0,.44.9A1.925,1.925,0,0,0,50.115,12.24Z" fill="#8f8989"/>
      <path d="M62.051,14a3.853,3.853,0,0,1-2.5-.76,3.305,3.305,0,0,1-.941-2.7V6.22h-1.7V4.08h1.7l.3-2.66h2.26V4.08h2.68V6.22H61.17v4.34a1.272,1.272,0,0,0,.311.99,1.637,1.637,0,0,0,1.07.27H63.79V14Z" fill="#8f8989"/>
      <path d="M69.4,14.24a4.7,4.7,0,0,1-2.1-.41,2.831,2.831,0,0,1-1.22-1.09,2.9,2.9,0,0,1-.4-1.5A2.727,2.727,0,0,1,66.764,9,5.136,5.136,0,0,1,70,8.14h2.52V7.9a1.837,1.837,0,0,0-.58-1.5A2.185,2.185,0,0,0,70.5,5.92a2.475,2.475,0,0,0-1.36.37,1.591,1.591,0,0,0-.72,1.09h-2.5a3.481,3.481,0,0,1,.73-1.88,4.088,4.088,0,0,1,1.629-1.23,5.621,5.621,0,0,1,2.24-.43,4.92,4.92,0,0,1,3.34,1.06,3.762,3.762,0,0,1,1.221,3V14H72.9l-.24-1.6a3.7,3.7,0,0,1-1.23,1.32A3.631,3.631,0,0,1,69.4,14.24Zm.579-2a2.118,2.118,0,0,0,1.71-.72,3.489,3.489,0,0,0,.77-1.78h-2.18a2.271,2.271,0,0,0-1.459.37,1.145,1.145,0,0,0-.44.91,1.046,1.046,0,0,0,.44.9A1.925,1.925,0,0,0,69.983,12.24Z" fill="#8f8989"/>
    </g>
    <g>
      <path d="M38.3,30.24a6.953,6.953,0,0,1-3.64-.91,6.063,6.063,0,0,1-2.34-2.54,8.278,8.278,0,0,1-.82-3.77,8.34,8.34,0,0,1,.82-3.78,6.118,6.118,0,0,1,2.34-2.56,6.9,6.9,0,0,1,3.64-.92,6.545,6.545,0,0,1,4.131,1.25,5.469,5.469,0,0,1,2.01,3.51H41.62a3.016,3.016,0,0,0-1.109-1.79,3.612,3.612,0,0,0-2.25-.65A3.744,3.744,0,0,0,35.22,19.4a5.49,5.49,0,0,0-1.1,3.62,5.448,5.448,0,0,0,1.1,3.61,4.289,4.289,0,0,0,5.291.7,2.818,2.818,0,0,0,1.109-1.69h2.82a5.28,5.28,0,0,1-2.01,3.38A6.654,6.654,0,0,1,38.3,30.24Z" fill="#8f8989"/>
      <path d="M51.4,30.24a5.418,5.418,0,0,1-2.66-.64,4.627,4.627,0,0,1-1.819-1.8,5.318,5.318,0,0,1-.66-2.68,5.67,5.67,0,0,1,.649-2.74,4.72,4.72,0,0,1,1.8-1.87,5.3,5.3,0,0,1,2.711-.67,5.113,5.113,0,0,1,2.58.64,4.609,4.609,0,0,1,1.75,1.75,4.917,4.917,0,0,1,.629,2.47c0,.146,0,.3-.01.46s-.017.327-.029.5H48.8a2.586,2.586,0,0,0,.811,1.82,2.544,2.544,0,0,0,1.77.66,2.327,2.327,0,0,0,1.311-.35,2.17,2.17,0,0,0,.79-.91h2.6a4.718,4.718,0,0,1-.93,1.71,4.577,4.577,0,0,1-1.6,1.21A5.053,5.053,0,0,1,51.4,30.24Zm.021-8.32a2.724,2.724,0,0,0-1.66.53,2.451,2.451,0,0,0-.92,1.61h4.939a2.155,2.155,0,0,0-.721-1.56A2.392,2.392,0,0,0,51.425,21.92Z" fill="#8f8989"/>
      <path d="M58.651,30V20.08h2.261l.2,1.68a3.492,3.492,0,0,1,1.33-1.4,3.923,3.923,0,0,1,2.05-.52A3.611,3.611,0,0,1,67.353,21a5.007,5.007,0,0,1,1.02,3.4V30H65.812V24.64a3.178,3.178,0,0,0-.52-1.96,1.91,1.91,0,0,0-1.62-.68,2.287,2.287,0,0,0-1.771.76,3.047,3.047,0,0,0-.689,2.12V30Z" fill="#8f8989"/>
      <path d="M75.187,30a3.853,3.853,0,0,1-2.5-.76,3.305,3.305,0,0,1-.941-2.7V22.22h-1.7V20.08h1.7l.3-2.66h2.26v2.66h2.68v2.14h-2.68v4.34a1.272,1.272,0,0,0,.311.99,1.637,1.637,0,0,0,1.07.27h1.239V30Z" fill="#8f8989"/>
      <path d="M83.726,30.24a5.42,5.42,0,0,1-2.66-.64,4.636,4.636,0,0,1-1.82-1.8,5.328,5.328,0,0,1-.66-2.68,5.659,5.659,0,0,1,.65-2.74,4.722,4.722,0,0,1,1.8-1.87,5.288,5.288,0,0,1,2.709-.67,5.105,5.105,0,0,1,2.58.64,4.6,4.6,0,0,1,1.75,1.75,4.918,4.918,0,0,1,.631,2.47c0,.146,0,.3-.011.46s-.017.327-.03.5H81.126a2.577,2.577,0,0,0,.81,1.82,2.547,2.547,0,0,0,1.771.66,2.326,2.326,0,0,0,1.31-.35,2.177,2.177,0,0,0,.79-.91h2.6a4.7,4.7,0,0,1-.93,1.71,4.582,4.582,0,0,1-1.6,1.21A5.06,5.06,0,0,1,83.726,30.24Zm.02-8.32a2.726,2.726,0,0,0-1.66.53,2.459,2.459,0,0,0-.92,1.61h4.94a2.161,2.161,0,0,0-.72-1.56A2.4,2.4,0,0,0,83.745,21.92Z" fill="#8f8989"/>
      <path d="M90.82,30V20.08H93.1l.24,1.86a4.144,4.144,0,0,1,1.471-1.53A4.1,4.1,0,0,1,97,19.84v2.7h-.721a4.088,4.088,0,0,0-1.5.26,2.022,2.022,0,0,0-1.029.9,3.57,3.57,0,0,0-.37,1.78V30Z" fill="#8f8989"/>
    </g>
    <g>
      <rect width="14" height="14" rx="1" ry="1" transform="translate(14 14) rotate(-180)" fill="#67c2e0"/>
      <rect x="16" width="14" height="14" rx="1" ry="1" transform="translate(46 14) rotate(-180)" fill="#d46e87"/>
      <rect x="16" y="16" width="14" height="14" rx="1" ry="1" fill="#3bbd89"/>
    </g>
  </g>
</svg>
