<svg id="logo-wedodata" xmlns="http://www.w3.org/2000/svg" width="89" height="24" viewBox="0 0 89 24">
  <title>logo-wedodata</title>
  <g>
    <path d="M0,7.2V.2H2.391A4.187,4.187,0,0,1,4.415.635,2.746,2.746,0,0,1,5.6,1.855,4.154,4.154,0,0,1,5.98,3.7,4.154,4.154,0,0,1,5.6,5.545,2.746,2.746,0,0,1,4.415,6.766,4.187,4.187,0,0,1,2.391,7.2ZM1.28,6.1H2.33a2.87,2.87,0,0,0,1.391-.285A1.624,1.624,0,0,0,4.45,5,3.406,3.406,0,0,0,4.67,3.7a3.418,3.418,0,0,0-.22-1.29,1.641,1.641,0,0,0-.729-.83A2.822,2.822,0,0,0,2.33,1.29H1.28Z" fill="#8f8989"/>
    <path d="M9.49,7.32A2.7,2.7,0,0,1,8.161,7a2.31,2.31,0,0,1-.91-.9,2.658,2.658,0,0,1-.33-1.341,2.826,2.826,0,0,1,.325-1.369,2.357,2.357,0,0,1,.9-.936A2.643,2.643,0,0,1,9.5,2.12a2.552,2.552,0,0,1,1.29.32,2.3,2.3,0,0,1,.875.875A2.456,2.456,0,0,1,11.98,4.55c0,.074,0,.15,0,.23s-.009.163-.015.25H8.19a1.293,1.293,0,0,0,.405.91,1.273,1.273,0,0,0,.885.33,1.161,1.161,0,0,0,.655-.176,1.073,1.073,0,0,0,.395-.454h1.3a2.361,2.361,0,0,1-.466.854,2.283,2.283,0,0,1-.8.605A2.531,2.531,0,0,1,9.49,7.32ZM9.5,3.16a1.369,1.369,0,0,0-.83.265,1.227,1.227,0,0,0-.46.806h2.47a1.075,1.075,0,0,0-.36-.78A1.2,1.2,0,0,0,9.5,3.16Z" fill="#8f8989"/>
    <path d="M15.11,7.32a2.927,2.927,0,0,1-1.16-.215,2,2,0,0,1-.8-.6,1.718,1.718,0,0,1-.36-.88h1.29a.831.831,0,0,0,.325.5,1.088,1.088,0,0,0,.685.205.922.922,0,0,0,.615-.17.507.507,0,0,0,.2-.39.431.431,0,0,0-.28-.436,4.963,4.963,0,0,0-.78-.225q-.319-.07-.649-.17a2.968,2.968,0,0,1-.605-.255,1.323,1.323,0,0,1-.444-.4,1.029,1.029,0,0,1-.171-.6A1.407,1.407,0,0,1,13.5,2.57a2.2,2.2,0,0,1,1.475-.45,2.221,2.221,0,0,1,1.405.41A1.66,1.66,0,0,1,17,3.66H15.79q-.11-.549-.83-.55a.944.944,0,0,0-.555.14.419.419,0,0,0-.2.351q0,.22.29.35a4.23,4.23,0,0,0,.771.24q.52.12.955.265a1.6,1.6,0,0,1,.694.43,1.167,1.167,0,0,1,.26.815,1.4,1.4,0,0,1-.239.83,1.663,1.663,0,0,1-.721.58A2.706,2.706,0,0,1,15.11,7.32Z" fill="#8f8989"/>
    <path d="M19,1.47a.808.808,0,0,1-.575-.21A.694.694,0,0,1,18.2.73a.68.68,0,0,1,.225-.525.909.909,0,0,1,1.15,0A.677.677,0,0,1,19.8.73a.691.691,0,0,1-.225.529A.808.808,0,0,1,19,1.47ZM18.36,7.2V2.24h1.28V7.2Z" fill="#8f8989"/>
    <path d="M23.08,5.72a2.7,2.7,0,0,1-.67-.079l-.37.369a1.747,1.747,0,0,0,.46.15q.29.06.94.12a2.6,2.6,0,0,1,1.439.47,1.3,1.3,0,0,1,.45,1.05,1.578,1.578,0,0,1-.24.835,1.721,1.721,0,0,1-.74.641,2.911,2.911,0,0,1-1.279.245,3.257,3.257,0,0,1-1.71-.4,1.3,1.3,0,0,1-.65-1.185,1.426,1.426,0,0,1,.65-1.16,2.171,2.171,0,0,1-.346-.19,1.739,1.739,0,0,1-.255-.21V6.15l.87-.92a1.665,1.665,0,0,1-.58-1.311,1.724,1.724,0,0,1,.94-1.56,2.286,2.286,0,0,1,1.09-.24,2.452,2.452,0,0,1,.78.12h1.88v.78l-.851.06a1.771,1.771,0,0,1,.2.84,1.766,1.766,0,0,1-.24.91,1.7,1.7,0,0,1-.694.65A2.274,2.274,0,0,1,23.08,5.72Zm-1.2,2.091a.6.6,0,0,0,.345.555,1.775,1.775,0,0,0,.846.185,1.407,1.407,0,0,0,.779-.194.6.6,0,0,0,.3-.525.589.589,0,0,0-.2-.45,1.326,1.326,0,0,0-.775-.22q-.41-.029-.76-.09A1.146,1.146,0,0,0,22,7.42.705.705,0,0,0,21.88,7.811Zm1.2-3.07a.982.982,0,0,0,.645-.21.73.73,0,0,0,.256-.6.731.731,0,0,0-.256-.6.982.982,0,0,0-.645-.21,1,1,0,0,0-.66.21.739.739,0,0,0-.25.6.738.738,0,0,0,.25.6A1,1,0,0,0,23.08,4.74Z" fill="#8f8989"/>
    <path d="M26.67,7.2V2.24H27.8l.1.84a1.75,1.75,0,0,1,.665-.7,1.966,1.966,0,0,1,1.025-.26,1.8,1.8,0,0,1,1.43.58,2.5,2.5,0,0,1,.51,1.7V7.2H30.25V4.521a1.587,1.587,0,0,0-.261-.98.954.954,0,0,0-.81-.34,1.141,1.141,0,0,0-.885.38,1.519,1.519,0,0,0-.346,1.061V7.2Z" fill="#8f8989"/>
    <path d="M35.159,7.32A2.7,2.7,0,0,1,33.83,7a2.31,2.31,0,0,1-.91-.9,2.658,2.658,0,0,1-.33-1.341,2.826,2.826,0,0,1,.325-1.369,2.357,2.357,0,0,1,.9-.936A2.643,2.643,0,0,1,35.17,2.12a2.552,2.552,0,0,1,1.29.32,2.3,2.3,0,0,1,.875.875,2.456,2.456,0,0,1,.314,1.234c0,.074,0,.15,0,.23s-.009.163-.015.25H33.859a1.293,1.293,0,0,0,.405.91,1.273,1.273,0,0,0,.885.33,1.161,1.161,0,0,0,.655-.176,1.073,1.073,0,0,0,.395-.454h1.3a2.361,2.361,0,0,1-.466.854,2.283,2.283,0,0,1-.8.605A2.531,2.531,0,0,1,35.159,7.32Zm.011-4.16a1.369,1.369,0,0,0-.83.265,1.227,1.227,0,0,0-.46.806h2.47a1.075,1.075,0,0,0-.36-.78A1.2,1.2,0,0,0,35.17,3.16Z" fill="#8f8989"/>
    <path d="M41.01,7.32a2.33,2.33,0,0,1-1.25-.34,2.443,2.443,0,0,1-.87-.931,2.767,2.767,0,0,1-.319-1.34,2.742,2.742,0,0,1,.319-1.335,2.42,2.42,0,0,1,.87-.92,2.353,2.353,0,0,1,1.25-.335,2.171,2.171,0,0,1,.98.21,1.76,1.76,0,0,1,.68.59V0h1.28V7.2h-1.14l-.141-.71a2.284,2.284,0,0,1-.635.58A1.9,1.9,0,0,1,41.01,7.32ZM41.28,6.2a1.34,1.34,0,0,0,1.015-.415,1.481,1.481,0,0,0,.4-1.065,1.48,1.48,0,0,0-.4-1.064,1.448,1.448,0,0,0-2.024,0,1.451,1.451,0,0,0-.4,1.06,1.486,1.486,0,0,0,.4,1.07A1.333,1.333,0,0,0,41.28,6.2Z" fill="#8f8989"/>
    <path d="M50.569,7.32a2.166,2.166,0,0,1-.979-.21,1.778,1.778,0,0,1-.681-.59l-.14.68H47.63V0h1.279V2.95a2.288,2.288,0,0,1,.636-.58,1.892,1.892,0,0,1,1.024-.25,2.328,2.328,0,0,1,1.25.34,2.436,2.436,0,0,1,.87.931,2.767,2.767,0,0,1,.32,1.34,2.743,2.743,0,0,1-.32,1.335,2.413,2.413,0,0,1-.87.92A2.359,2.359,0,0,1,50.569,7.32ZM50.3,6.2a1.351,1.351,0,0,0,1.01-.41,1.453,1.453,0,0,0,.4-1.06,1.49,1.49,0,0,0-.4-1.07,1.437,1.437,0,0,0-2.025,0A1.484,1.484,0,0,0,48.89,4.72a1.484,1.484,0,0,0,.395,1.065A1.341,1.341,0,0,0,50.3,6.2Z" fill="#8f8989"/>
    <path d="M54.319,9.4l1.15-2.53h-.3L53.24,2.24h1.39l1.39,3.49,1.45-3.49h1.36L55.68,9.4Z" fill="#8f8989"/>
  </g>
  <g>
    <path d="M10.54,17.676l-2.58-5.6c-.034-.085-.1-.085-.135,0l-2.463,5.6L3.221,12.3H0L4.805,23.9c.053.117.152.117.2,0l2.832-6.154L10.708,23.9c.068.139.151.139.2,0l4.739-11.6H12.58Z" fill="#1b1b1b"/>
    <polygon points="18.91 19.383 22.947 19.383 22.947 17.144 18.91 17.144 18.91 14.873 23.773 14.873 23.773 12.295 15.841 12.295 15.841 23.763 24.01 23.763 24.01 21.182 18.91 21.182 18.91 19.383" fill="#1b1b1b"/>
    <path d="M42.136,12.159a6.015,6.015,0,0,0-6.009,4.568A5.441,5.441,0,0,0,30.446,12.3H26.012V23.763h4.434a5.443,5.443,0,0,0,5.68-4.431,6.022,6.022,0,0,0,6.009,4.583,5.884,5.884,0,1,0,0-11.756ZM30.108,21.166H29.081V14.9h1.027a2.859,2.859,0,0,1,3,3.134A2.863,2.863,0,0,1,30.108,21.166Zm12.027.085a2.957,2.957,0,0,1-3.017-3.222,3.024,3.024,0,1,1,6.037,0A2.958,2.958,0,0,1,42.136,21.251Z" fill="#67c2e0"/>
    <path d="M54.155,12.3H49.721V23.763h4.434a5.479,5.479,0,0,0,5.8-5.734A5.477,5.477,0,0,0,54.155,12.3Zm-.337,8.871H52.79V14.9h1.028a2.859,2.859,0,0,1,3,3.134A2.863,2.863,0,0,1,53.818,21.166Z" fill="#1b1b1b"/>
    <polygon points="79.234 12.219 68.936 12.219 68.936 14.906 72.518 14.906 72.518 23.861 75.652 23.861 75.652 14.906 79.234 14.906 79.234 12.219" fill="#1b1b1b"/>
    <path d="M65.051,12.089l-5.58,11.674h2.866l.538-1.245H67.23l.555,1.245h3.033L65.255,12.089C65.2,11.97,65.1,11.97,65.051,12.089Zm-1.211,8.189,1.177-2.728,1.215,2.728Z" fill="#1b1b1b"/>
    <path d="M85.634,23.763h3.033L83.1,12.089c-.052-.119-.153-.119-.2,0L77.32,23.763h2.866l.538-1.245h4.355ZM81.69,20.279l1.177-2.728,1.215,2.728Z" fill="#1b1b1b"/>
  </g>
</svg>
