<svg id="Calque_1" data-name="Calque 1" xmlns="http://www.w3.org/2000/svg" width="650" height="73" viewBox="0 0 650 73">
  <title>sustainable-goals-development_ceq-institute</title>
  <g>
    <path d="M422.128,60.443a23.236,23.236,0,0,1-10.177,6.789,42.815,42.815,0,0,1-14.628,2.489A29.015,29.015,0,0,1,382.5,66.139a24.566,24.566,0,0,1-9.9-10.626,37.621,37.621,0,0,1-3.662-16.451l-.03-4.42a39.971,39.971,0,0,1,3.166-16.876,24.275,24.275,0,0,1,9.391-10.96,27.28,27.28,0,0,1,14.462-3.872q11.563-.078,18.12,5.391c4.37,3.648,6.982,9.07,7.833,16.088H408.845q-.933-5.576-4.008-8.144t-8.432-2.532q-6.833.046-10.368,5.205t-3.513,15.294l.028,4.152q.07,10.225,3.99,15.422t11.421,5.146q7.542-.051,10.737-3.288l-.077-11.123H396.369V34.5h25.76Z" fill="#009dda"/>
    <path d="M532.739,54.67H509.254l-4.373,13.522H490.639L514.393,2.65h12.412l24.776,65.542H537.34ZM512.8,43.8h16.252l-8.337-24.388Z" fill="#009dda"/>
    <polygon points="568.593 56.702 597.404 56.702 597.404 68.192 555.199 68.192 555.199 2.65 568.593 2.65 568.593 56.702" fill="#009dda"/>
    <path d="M636.738,50.139a6.87,6.87,0,0,0-2.719-5.808q-2.692-2.014-9.673-4.222a68.28,68.28,0,0,1-11.058-4.366Q602.175,29.836,602.1,19.7a15.7,15.7,0,0,1,2.906-9.419,19.36,19.36,0,0,1,8.482-6.509,32.12,32.12,0,0,1,12.464-2.407A29.229,29.229,0,0,1,638.386,3.8a19.762,19.762,0,0,1,8.509,7.064,18.926,18.926,0,0,1,3.085,10.517H636.586a8.764,8.764,0,0,0-2.86-6.923Q630.9,12,625.807,12.038q-4.912.034-7.62,2.129a6.543,6.543,0,0,0-2.686,5.488,6.269,6.269,0,0,0,3.228,5.291,36.022,36.022,0,0,0,9.425,3.954q11.453,3.362,16.712,8.414a16.986,16.986,0,0,1,5.31,12.645,15.642,15.642,0,0,1-6.295,13.28q-6.353,4.844-17.156,4.918A33.216,33.216,0,0,1,613.044,65.5a21.619,21.619,0,0,1-9.449-7.459A19.563,19.563,0,0,1,600.282,46.9h13.439q.074,10.761,12.932,10.673,4.778-.032,7.443-1.993a6.316,6.316,0,0,0,2.642-5.443" fill="#009dda"/>
    <path d="M443.85,26.792a18.736,18.736,0,0,1,2.958-3.8l-9.7-10.635a33.207,33.207,0,0,0-6.158,8.015Z" fill="#5fba46"/>
    <path d="M467.626,19.279a18.485,18.485,0,0,1,4.067,2.548l9.725-10.619A33.079,33.079,0,0,0,472.8,5.83Z" fill="#d19f2a"/>
    <path d="M489.9,22.476,477.009,28.9a18.473,18.473,0,0,1,1.291,4.554l14.34-1.354a32.7,32.7,0,0,0-2.74-9.626" fill="#c22033"/>
    <path d="M476.083,27.039l12.889-6.425a33.1,33.1,0,0,0-6.023-8l-9.725,10.616a18.693,18.693,0,0,1,2.859,3.806" fill="#2d9a47"/>
    <path d="M441.289,36.2c0-.291.009-.58.023-.868l-14.343-1.284c-.044.712-.072,1.428-.072,2.152a32.986,32.986,0,0,0,.977,7.977L441.725,40.2a18.64,18.64,0,0,1-.436-4" fill="#48773c"/>
    <path d="M474.278,47.987a18.765,18.765,0,0,1-3.5,3.29l7.572,12.26a33.247,33.247,0,0,0,7.416-6.886Z" fill="#fdb714"/>
    <path d="M478.5,36.2a18.4,18.4,0,0,1-.426,3.957l13.851,3.979a32.87,32.87,0,0,0,.968-7.936c0-.68-.023-1.354-.064-2.026l-14.341,1.355c.008.225.013.446.013.671" fill="#ef412a"/>
    <path d="M445.742,48.262l-11.464,8.713a33.289,33.289,0,0,0,7.486,6.782l7.572-12.248a18.759,18.759,0,0,1-3.595-3.247" fill="#f99d25"/>
    <path d="M441.521,33.262a18.331,18.331,0,0,1,1.374-4.62l-12.886-6.42a32.806,32.806,0,0,0-2.844,9.753Z" fill="#007dbb"/>
    <path d="M476.592,64.648,469.029,52.4a18.52,18.52,0,0,1-4.413,1.794l2.669,14.164a32.745,32.745,0,0,0,9.305-3.712" fill="#8f1838"/>
    <path d="M477.521,42.162a18.618,18.618,0,0,1-2.014,4.146l11.5,8.675a32.826,32.826,0,0,0,4.352-8.844Z" fill="#00add8"/>
    <path d="M462.578,54.61a18.781,18.781,0,0,1-2.683.2,18.565,18.565,0,0,1-2.166-.129l-2.667,14.165a33.15,33.15,0,0,0,10.183-.081Z" fill="#f36e24"/>
    <path d="M461.083,17.631a18.408,18.408,0,0,1,4.6.889l5.175-13.444a32.786,32.786,0,0,0-9.778-1.85Z" fill="#ea1d2d"/>
    <path d="M455.678,54.323a18.469,18.469,0,0,1-4.568-1.728l-7.576,12.254a32.858,32.858,0,0,0,9.48,3.624Z" fill="#e01a83"/>
    <path d="M454.3,18.453a18.456,18.456,0,0,1,4.7-.835V3.214a32.862,32.862,0,0,0-9.908,1.8Z" fill="#1b3668"/>
    <path d="M444.48,46.606a18.452,18.452,0,0,1-2.194-4.4l-13.843,3.973a32.838,32.838,0,0,0,4.573,9.14Z" fill="#cd8b2a"/>
    <path d="M448.367,21.606a18.629,18.629,0,0,1,3.99-2.414L447.151,5.763a32.987,32.987,0,0,0-8.489,5.2Z" fill="#00558a"/>
    <path d="M114.8,24.347a2.743,2.743,0,0,0-1.038-2.284,12.874,12.874,0,0,0-3.645-1.695,34.771,34.771,0,0,1-4.265-1.694q-5.386-2.645-5.387-7.272A6.522,6.522,0,0,1,101.8,7.337,8.7,8.7,0,0,1,105.6,4.6a14.778,14.778,0,0,1,5.52-.98,12.916,12.916,0,0,1,5.359,1.067,8.49,8.49,0,0,1,3.683,3.035,7.931,7.931,0,0,1,1.313,4.5h-6.662a3.347,3.347,0,0,0-1.038-2.627,4.041,4.041,0,0,0-2.807-.933,4.569,4.569,0,0,0-2.827.79,2.426,2.426,0,0,0-1.038,2.008,2.44,2.44,0,0,0,1.143,1.931,14.357,14.357,0,0,0,4.017,1.79,24.634,24.634,0,0,1,4.721,1.989q4.492,2.59,4.492,7.139a6.768,6.768,0,0,1-2.74,5.711,12.2,12.2,0,0,1-7.519,2.074,14.907,14.907,0,0,1-6.1-1.208,9.2,9.2,0,0,1-4.112-3.312,8.634,8.634,0,0,1-1.38-4.845h6.7a4.256,4.256,0,0,0,1.151,3.284,5.448,5.448,0,0,0,3.741,1.057,4.306,4.306,0,0,0,2.618-.714,2.36,2.36,0,0,0,.961-2.008" fill="#009dda"/>
    <path d="M147.034,4V22.139a10.424,10.424,0,0,1-1.313,5.339,8.505,8.505,0,0,1-3.769,3.435,13.272,13.272,0,0,1-5.807,1.181q-5.064,0-7.976-2.627a9.375,9.375,0,0,1-2.97-7.2V4h6.721V22.406q.114,4.55,4.225,4.549a4.088,4.088,0,0,0,3.141-1.143,5.339,5.339,0,0,0,1.067-3.712V4Z" fill="#009dda"/>
    <path d="M165.889,24.347a2.743,2.743,0,0,0-1.038-2.284,12.874,12.874,0,0,0-3.645-1.695,34.852,34.852,0,0,1-4.265-1.694q-5.386-2.645-5.387-7.272A6.522,6.522,0,0,1,152.9,7.337a8.7,8.7,0,0,1,3.8-2.742,14.779,14.779,0,0,1,5.52-.98,12.912,12.912,0,0,1,5.359,1.067,8.49,8.49,0,0,1,3.683,3.035,7.931,7.931,0,0,1,1.313,4.5h-6.662a3.347,3.347,0,0,0-1.038-2.627,4.041,4.041,0,0,0-2.807-.933,4.569,4.569,0,0,0-2.827.79,2.425,2.425,0,0,0-1.036,2.008,2.438,2.438,0,0,0,1.141,1.931,14.375,14.375,0,0,0,4.017,1.79,24.634,24.634,0,0,1,4.721,1.989q4.491,2.59,4.492,7.139a6.768,6.768,0,0,1-2.74,5.711,12.2,12.2,0,0,1-7.519,2.074,14.911,14.911,0,0,1-6.1-1.208,9.2,9.2,0,0,1-4.112-3.312,8.634,8.634,0,0,1-1.38-4.845h6.7a4.251,4.251,0,0,0,1.153,3.284,5.442,5.442,0,0,0,3.74,1.057,4.306,4.306,0,0,0,2.618-.714,2.36,2.36,0,0,0,.961-2.008" fill="#009dda"/>
    <polygon points="198.145 9.156 189.827 9.156 189.827 31.714 183.144 31.714 183.144 9.156 174.978 9.156 174.978 3.997 198.145 3.997 198.145 9.156" fill="#009dda"/>
    <path d="M214.81,26.535h-9.156l-1.6,5.178h-7.139L207.083,4h6.282l10.241,27.716h-7.177Zm-7.557-5.158h5.958l-2.988-9.614Z" fill="#009dda"/>
    <rect x="226.47" y="3.998" width="6.662" height="27.716" fill="#009dda"/>
    <polygon points="261.314 31.713 254.671 31.713 244.849 14.466 244.849 31.713 238.166 31.713 238.166 3.997 244.849 3.997 254.652 21.244 254.652 3.997 261.314 3.997 261.314 31.713" fill="#009dda"/>
    <path d="M282.016,26.535h-9.156l-1.6,5.178h-7.139L274.286,4h6.282L290.81,31.714h-7.177Zm-7.557-5.158h5.958l-2.988-9.614Z" fill="#009dda"/>
    <path d="M293.218,31.713V4h9.956q5.349,0,8.137,1.96A6.526,6.526,0,0,1,314.1,11.65a6.594,6.594,0,0,1-.99,3.673,5.758,5.758,0,0,1-2.912,2.246A5.855,5.855,0,0,1,313.53,19.7a6.214,6.214,0,0,1,1.16,3.807,7.343,7.343,0,0,1-2.579,6.121q-2.58,2.044-7.644,2.083ZM299.9,15.552h3.483a4.942,4.942,0,0,0,3.122-.8,2.843,2.843,0,0,0,.933-2.309,2.989,2.989,0,0,0-1.009-2.53,5.411,5.411,0,0,0-3.255-.772H299.9Zm0,4.378v6.643h4.378a4.17,4.17,0,0,0,2.779-.828,2.9,2.9,0,0,0,.971-2.332q0-3.464-3.446-3.484Z" fill="#009dda"/>
    <polygon points="325.436 26.574 337.067 26.574 337.067 31.713 318.755 31.713 318.755 3.997 325.436 3.997 325.436 26.574" fill="#009dda"/>
    <polygon points="357.464 19.949 346.956 19.949 346.956 26.574 359.368 26.574 359.368 31.713 340.274 31.713 340.274 3.997 359.405 3.997 359.405 9.156 346.956 9.156 346.956 14.999 357.464 14.999 357.464 19.949" fill="#009dda"/>
    <path d="M100.473,69.2V42.043h8.748a12.879,12.879,0,0,1,6.473,1.632,11.475,11.475,0,0,1,4.486,4.607,13.924,13.924,0,0,1,1.632,6.669V56.2a13.99,13.99,0,0,1-1.576,6.686,11.519,11.519,0,0,1-4.439,4.626,12.58,12.58,0,0,1-6.388,1.687Zm6.547-22.1V64.163H109.3a5.1,5.1,0,0,0,4.328-2q1.511-2.006,1.51-5.96V55.025q0-3.936-1.51-5.932a5.181,5.181,0,0,0-4.4-2Z" fill="#009dda"/>
    <polygon points="140.575 57.673 130.963 57.673 130.963 64.163 142.441 64.163 142.441 69.2 124.415 69.2 124.415 42.043 142.477 42.043 142.477 47.097 130.963 47.097 130.963 52.823 140.575 52.823 140.575 57.673" fill="#009dda"/>
    <polygon points="156.796 61.813 162.204 42.044 169.516 42.044 160.377 69.199 153.215 69.199 144.15 42.044 151.405 42.044 156.796 61.813" fill="#009dda"/>
    <polygon points="187.56 57.673 178.041 57.673 178.041 64.163 189.425 64.163 189.425 69.2 171.493 69.2 171.493 42.043 189.462 42.043 189.462 47.097 178.041 47.097 178.041 52.823 187.56 52.823 187.56 57.673" fill="#009dda"/>
    <polygon points="198.222 64.163 208.582 64.163 208.582 69.199 191.674 69.199 191.674 42.044 198.222 42.044 198.222 64.163" fill="#009dda"/>
    <path d="M232.939,56.18a16.018,16.018,0,0,1-1.474,7.033,10.889,10.889,0,0,1-4.188,4.71,11.662,11.662,0,0,1-6.183,1.65,11.826,11.826,0,0,1-6.154-1.594,10.878,10.878,0,0,1-4.188-4.56,15.56,15.56,0,0,1-1.576-6.808V55.081a16.1,16.1,0,0,1,1.464-7.042,10.869,10.869,0,0,1,4.2-4.708,12.416,12.416,0,0,1,12.374-.019,11.058,11.058,0,0,1,4.208,4.672,15.644,15.644,0,0,1,1.519,6.948Zm-6.659-1.138a11.421,11.421,0,0,0-1.352-6.145,4.336,4.336,0,0,0-3.87-2.1q-4.924,0-5.2,7.387l-.019,1.995a11.751,11.751,0,0,0,1.325,6.137,4.328,4.328,0,0,0,3.935,2.145,4.278,4.278,0,0,0,3.825-2.107,11.431,11.431,0,0,0,1.361-6.062Z" fill="#009dda"/>
    <path d="M242.085,59.986V69.2h-6.547V42.044h10.837a12.618,12.618,0,0,1,5.511,1.146,8.654,8.654,0,0,1,3.712,3.264,8.921,8.921,0,0,1,1.315,4.8,7.855,7.855,0,0,1-2.845,6.35q-2.842,2.379-7.8,2.379Zm0-5.055h4.29a4.046,4.046,0,0,0,2.9-.952,3.531,3.531,0,0,0,1-2.685,4.372,4.372,0,0,0-1.026-3.041,3.638,3.638,0,0,0-2.8-1.157h-4.364Z" fill="#009dda"/>
    <polygon points="267.913 42.043 273.975 60.937 280.018 42.043 288.634 42.043 288.634 69.199 282.069 69.199 282.069 62.858 282.704 49.877 276.138 69.199 271.811 69.199 265.227 49.858 265.862 62.858 265.862 69.199 259.314 69.199 259.314 42.043 267.913 42.043" fill="#009dda"/>
    <polygon points="307.738 57.673 298.098 57.673 298.098 64.163 309.604 64.163 309.604 69.2 291.551 69.2 291.551 42.043 309.64 42.043 309.64 47.097 298.098 47.097 298.098 52.823 307.738 52.823 307.738 57.673" fill="#009dda"/>
    <polygon points="334.486 69.2 327.977 69.2 318.353 52.302 318.353 69.2 311.806 69.2 311.806 42.043 318.353 42.043 327.958 58.941 327.958 42.043 334.486 42.043 334.486 69.2" fill="#009dda"/>
    <polygon points="359.405 47.097 351.254 47.097 351.254 69.199 344.706 69.199 344.706 47.097 336.707 47.097 336.707 42.043 359.405 42.043 359.405 47.097" fill="#009dda"/>
    <path d="M70.4,17.386a30.215,30.215,0,0,1,2.011,21.405c-2.087,8.145-8.939,16.382-16.916,19.731-8.982,4.4-21.74,3.3-29.747-2.437C14.616,48.458,10.063,35.32,13.427,22.349A30.962,30.962,0,0,1,29.108,3.289,32.154,32.154,0,0,1,42.963,0,30.608,30.608,0,0,1,70.4,17.386M43.572,1.492a21.271,21.271,0,0,1,.045,4.2.629.629,0,0,1,.138-.365c.214-.121.4.062.488.214.014.214.1.579-.077.7.182.03.274-.106.441-.106a22.692,22.692,0,0,1,9.606,2.924V8.982c.594-.289,1.356-.67,1.965-.152.729-.274.867.623,1.46.731a3.2,3.2,0,0,1,1.615,2.055c.137.274.562.471.623.761a11.712,11.712,0,0,1,2.3-2.664l.517-.212A28.406,28.406,0,0,0,46.541,1.857a23.468,23.468,0,0,1-2.969-.365m-1.705.152a29.628,29.628,0,0,0-16.381,5.8c-.929.64-1.751,1.614-2.695,2.161h.137a25.871,25.871,0,0,1,3.365,3.242l.077-.212A24.161,24.161,0,0,1,41.927,6.09l-.137-.367L41.745,2.07Zm5.223,2.3L44.9,4.887c-.182-.076-.533-.168-.653.076-.092.077,0,.183.029.259.808,1.035,2.207.456,3.213.259a1.931,1.931,0,0,0,1.979-.518V4.856a3.041,3.041,0,0,0-2.375-.913M43.541,7.7l.153.289c-.032,1.417.061,2.924-.077,4.248a4.829,4.829,0,0,1,1.751.061A17.833,17.833,0,0,1,53.56,15.59a2.177,2.177,0,0,1-.7-1.1.166.166,0,0,1,.183-.061c.03-.474-.471-.717-.549-1.143a.313.313,0,0,1,.335-.138,9.923,9.923,0,0,1,1.34,1.569c.335-.137.609.076.853.259.441.259.167.822.5,1.126.062.9,1.158,1.4,1.1,2.3.015.212.273.046.364.152l.915,1.127a.454.454,0,0,0,.15.624c.412.182.641-.336,1.052-.259.594.335-.091.731-.03,1.1.228.015.517-.182.7.046.076.335-.274.549-.411.761,0,.335.273.259.517.335a.419.419,0,0,1,.365.549c.762.791-.229,1.644.137,2.481a1.445,1.445,0,0,1-.394,1.493c.015.669-.594,1.079-.838,1.643l-.776.153c-.412.411.349.913-.061,1.172l1.7.032-.182-.183a2.512,2.512,0,0,1,.228-2.161,4.866,4.866,0,0,1,.808-1.675c.107-.03.3-.229.4,0A3.078,3.078,0,0,1,61,27.357a4.651,4.651,0,0,1,.47,2.482c1.508-.092,2.986-.123,4.462-.107l-.138-.288a21.877,21.877,0,0,0-1.978-7.887c-.32.015-.549.274-.914.183a.288.288,0,0,1-.183-.3,20.927,20.927,0,0,0-1.675-1.857c-.776.075-1.125-.823-1.826-.914-.623-.259-.2-1.264-1.1-.99a1.47,1.47,0,0,1-.959-1.02,2.5,2.5,0,0,0-.868-2.161c-.547-.2-.776.532-1.323.41-.3-.152-.168-.547-.259-.806-.107-.228-.365-.4-.32-.7.717-.943-.868-.929-.517-1.857-.092-.67-.777-.929-1.127-1.462a24.707,24.707,0,0,0-7.384-2.116A5.1,5.1,0,0,1,43.541,7.7m13.778.03c-.32.3-.594-.273-.884.077a.625.625,0,0,0,.106.441c.64.229.715,1.158,1.538.944.244-.274-.153-.564-.077-.914a.906.906,0,0,0-.684-.549m-27.328,4.1c-.944.655-1.811,1.507-2.786,2.086a24.427,24.427,0,0,1,3.075,2.846l.107.289a18.254,18.254,0,0,1,9.133-4.629,8.1,8.1,0,0,1,2.405-.182,30.236,30.236,0,0,1-.03-4.385,23.381,23.381,0,0,0-11.905,3.974m33.829-1.385a35.392,35.392,0,0,1-3.03,3.257l-.518.106c.32.077.411.458.624.686,1.111.593,1.4,1.781,2.375,2.451.549,1.141,1.813,2.024,1.858,3.333a24.144,24.144,0,0,1,2.313,9.454l-.121.183a.629.629,0,0,0,.365-.138l4.385-.076c-.289-.426-.167-1.05-.244-1.569a30.09,30.09,0,0,0-8.007-17.689m-41.866.106a29.933,29.933,0,0,0-7.795,16.625c-.167.914-.062,1.857-.244,2.786a30.442,30.442,0,0,1,4.7,0l-.107-.594A24.747,24.747,0,0,1,23.08,16.32a12.474,12.474,0,0,1,2.04-2.33c-.99-.929-2.025-2.01-3.06-3.03Zm20.019,3.181-.258.153A17.77,17.77,0,0,0,31.56,18.192a41,41,0,0,1,3.242,3.03c.076-.106.153-.214.229-.335a13.934,13.934,0,0,1,4.644-2.405,6.914,6.914,0,0,1,2.3-.259,20.21,20.21,0,0,1,0-4.491m1.6.03.153.335-.03,4.126.4-.076a13.362,13.362,0,0,1,6.834,2.787l.107.319c.685-.958,1.72-1.781,2.528-2.695l.761-.441-.365-.152A17.737,17.737,0,0,0,48.473,14.8a27.008,27.008,0,0,0-4.9-1.035M26.11,14.9l-.03.289L24.435,17.28a24.274,24.274,0,0,0-4.354,12.636l4.171-.076.4.152c-.168-.106-.123-.289-.183-.441a18.36,18.36,0,0,1,4.856-11.434A30.462,30.462,0,0,1,26.11,14.9m29.124,4.233-.077.183c-1.4,1.461-2.939,2.968-4.277,4.461a1.052,1.052,0,0,0,.411.441c.061-.365.258-.685.289-1.066.365-.5.913-.183,1.385-.076a10.359,10.359,0,0,1,2.161.152c.549.274.594.975,1.1,1.249a.431.431,0,0,1-.152.578c.152,1.143.7-.3,1.279-.03.244.092.549.062.731.321.091.471.67.38.7.837-.045.228-.289.288-.441.411.137.456-.473.746-.259,1.234.882.167.913-.853,1.325-1.309a8.19,8.19,0,0,0-.853-2.3c-.5-.107-.806-.7-1.309-.806-.975-.382.152-.99.032-1.569a18.3,18.3,0,0,0-2.04-2.71m-24.77.152a17.924,17.924,0,0,0-4.1,8.434A14.02,14.02,0,0,1,26,29.991a3.81,3.81,0,0,1,1.9-.076c-.35-.183-.061-.624-.259-.868-.044-.38-.106-.852.259-1.1-.045-.624.624-.944.685-1.508.168-.638.9-.212,1.249-.547.228-.121.03-.335.03-.5.3-.41.776-.4,1.141-.623A3.243,3.243,0,0,1,32.033,23.7c.913.032.928-1.248,1.795-1.278a36.409,36.409,0,0,1-3.363-3.137m13.153.5c.289.868.03,2.146.214,3.151l1.1.365c.32-.532,1.02-.64,1.325-1.141.2-.167.426,0,.579.183a3.051,3.051,0,0,1-.183,1.217c-.411.823-1.385.928-1.933,1.523.35.2.547-.168.837-.244a1.832,1.832,0,0,1,1.02.685c.274.121.533-.045.776-.138.168-1.263,1.751-1.081,2.222-2.268l-.288.106c-.121-.168-.426-.091-.411-.367a3.173,3.173,0,0,1,.913-.729,15.5,15.5,0,0,0-4.338-1.979,14.661,14.661,0,0,1-1.828-.365m-8.19,3.181h.335c.365.367.959.289,1.234.777.137.273-.259.243-.244.471.076.061.183.076.244.183.289.106.228-.168.335-.291.38-.379.441.367.806.367a.564.564,0,0,1,.808.106c.243-.214.761-.015.837-.411.471-.5.214-1.279.914-1.6.243.137-.015.365.076.579.471.2,1-.4,1.385.076a9.607,9.607,0,0,1-.229-3.319,10.385,10.385,0,0,0-6.5,3.06M42.811,25.5c-.244-.274-.776-.107-1.1,0,.3.3.182.852.365,1.234a2.9,2.9,0,0,1-1.934,1.141c-.2.243-.152.776-.624.731-.152.335-.67.532-.471,1.02a9.35,9.35,0,0,0-.259,1.751c-.9.562-.64-.746-1.1-1.02l-.153.259c-.182.046-.3-.061-.426-.183-.137-.046-.365-.091-.487.03-.2.335-.5.609-.426,1.067-.091.273-.549.182-.488.471a8.719,8.719,0,0,0,1.537-.212c.35.091.64-.168.991-.185a.329.329,0,0,1,.212.367h.123a.616.616,0,0,0,.243-.731c.03-.32.38-.32.594-.411.2.091.076.288.106.441.685.259-.167.761-.259,1.126-.183.289,0,.944-.578.853a.215.215,0,0,1-.152-.259h-.077a.785.785,0,0,0,.412.685c.426-.35.44-.944,1.049-1.02.32-.335-.137-.853.335-1.126.793-.015,1.644-.351,2.269.288-.045.274-.152.4.076.624a3.026,3.026,0,0,1-.547,1.02.522.522,0,0,1-.153.579c-.214.929-1.279.488-1.9.806a4.826,4.826,0,0,0,3.365.914c.655-.03.365-.838.7-1.2.212-1.067,1.187-.335,1.781-.624a4.277,4.277,0,0,0,.517-1.417,1.01,1.01,0,0,1-.411-1.141c-.259-.35-.229-.99-.791-1.05a.3.3,0,0,1,.062-.365c-.016-.335.319-.442.41-.7-.35-.229-.259-.732-.228-1.02-.6.167-.656-.609-1.1-.776-.107-.35-.488-.412-.793-.473-.731.35-.853-.549-1.4-.761-.061-.167-.183-.411,0-.549.274-.228.64-.03.958-.045Zm-13.23,3.76c-1.232.4.2,1.325-.106,2.086-.168.442-.624.03-.944.214l-.121.806c-.183.471-.777.121-1.05.441-.2.3.014.624.182.868-.426.975.958,1.278.944,2.161.426.549-.061,1.34.549,1.828.137.988-.138,2.328.731,3.1l.152.945c.183.655-.776.487-.655,1.064.183-.09.229.153.244.214v-.03a40.27,40.27,0,0,1,3.912-3.989l-.578-.578a15.212,15.212,0,0,1-2.345-5.223l-.442-.228c-.015.487-.243.867-.212,1.355l-.153.182c-.32-.015-.517-.274-.791-.441-.061-.168-.229-.442.03-.579a.5.5,0,0,1,.365.106c.138-.167.076-.411.153-.623.045-.367-.274-.7-.046-1.02.288-.03.5.32.623.517.289.091.518-.152.762-.259,0-.258.365-.608-.03-.76a3.591,3.591,0,0,0-.032-1.8c-.167-.5-.731-.411-1.141-.365m28.5.517c-.123.062-.289.015-.442.032a1.073,1.073,0,0,1,.442-.032m-.944,1.493.471.471c.473.32.153,1,.655,1.279.594.3.808.99,1.066,1.508a1.611,1.611,0,0,0,.138-.442c.212-.837.182-1.781.441-2.6a6.447,6.447,0,0,1-2.771-.212m10.414.212-.259-.182.152.411a24.513,24.513,0,0,1-4.826,13.519,10.1,10.1,0,0,1-1.8,1.964,31.833,31.833,0,0,1,3.4,3.333l.123-.228a29.319,29.319,0,0,0,7.6-18.589l.182-.365-.229.107Zm-6.106-.106a16.408,16.408,0,0,1-.212,2.74l.5.549a.558.558,0,0,1-.107.7.6.6,0,0,1-.7-.046,19.9,19.9,0,0,1-2.664,5.816c-.5.64-.988,1.522-1.643,1.857L58,44.211c.077-.076.032-.2.045-.3,0-.183.092-.4.321-.365.67-.016.685.7,1.066,1.066-.076.579.426,1.035.259,1.569a22.585,22.585,0,0,0,6.1-14.509l.214-.243c-1.37.137-2.816.044-4.232.059Zm-35.517.047.229.365a12.3,12.3,0,0,1,.214,2.983c.167-.289.212-.685.578-.867.045-.274-.365-.35-.319-.624.288-.564.014-1.478.761-1.72a1.753,1.753,0,0,1-1.462-.137m-7.337.059-.412.153L13.946,31.6a31.06,31.06,0,0,0,3.73,13.368,49.775,49.775,0,0,0,4.05,5.694l3.03-3.137.365-.152A9.156,9.156,0,0,1,23.7,45.915a2.1,2.1,0,0,1-1.279-.973c-.153-.168-.015-.471-.183-.593l-.182.228c-.533.259-.731-.289-1.1-.518-.473-.258-.244-1.158-.884-.99-.244-.015-.32-.289-.473-.441-.593.062-.746-.594-1.066-.913-.061.137,0,.318-.182.411-.609.137-.823-.609-1.234-.914-.106.046-.182.168-.335.137a1.78,1.78,0,0,1-.623-1.279c-.5-.562-.274-1.461-.183-2.146.091-.182.35-.288.3-.517.136-.32.471-.35.793-.365a.788.788,0,0,1,.3.289c.2-.123.64.015.473-.427a2.015,2.015,0,0,1,.988-.365,6.382,6.382,0,0,0,.686.944l-.214-.335a24.065,24.065,0,0,1-.731-4.629c.015-.091-.2-.137-.077-.228l.03.045a4.838,4.838,0,0,1,.047-.853m5.952,0-.335.153a35.428,35.428,0,0,1-4.232-.106l.182.259.335,2.8a21.451,21.451,0,0,1,.579,3.181c.167-.229.061-.685.473-.731-.168-.335.319-.624.044-.914a3.066,3.066,0,0,1,.868-2.01c.777-.03.838-1.05,1.614-1.1.4-.015.64.517.806.7a2.9,2.9,0,0,1-.335-2.238m7.825,1.873c.426.791.655,1.69,1.1,2.481.274.7.883,1.249,1.157,1.934A10.531,10.531,0,0,1,35.9,36.28a.8.8,0,0,0-.138-.594c-.138-.32-.015-.776-.259-1.052-.4.138.138.533-.029.762a.243.243,0,0,1-.367-.182,1.013,1.013,0,0,1-.731-.685c.289-.183-.076-.259-.152-.412-.152-.076-.168-.061-.289.076a.4.4,0,0,1-.229-.029c0-.868-.975-.351-1.34-.808m4.78,1.2a2.2,2.2,0,0,1-.623.988l.044.03c.367-.258.624-.731,1.1-.761Zm12.028,1.248a1.109,1.109,0,0,0,.244.731c.593-.091.334.731.882.655.3-.091.015-.35.106-.547-.091-.458-.532-.5-.838-.777-.029-.091.032-.167.077-.243-.228-.123-.335.014-.471.182m8.616.03c-.441-.03-.975.229-1.355-.076-.138-.123-.228.061-.214.182-.152.229-.3.518-.653.412-.274-.123-.274-.412-.365-.624a1.666,1.666,0,0,1-.077.471,5.282,5.282,0,0,0-.655,1.02c-.32.35-.837.229-1.172.518-.062.731-.867.578-1.325.806-.03.092.076.106.123.183a.589.589,0,0,0,.653-.152c.64.167.5-.641.868-.914.32-.047.623-.32.958-.107a2.159,2.159,0,0,1,.365,1.538c-.365.364-.182.959-.441,1.385.061.5-.547.731-.471,1.234a1.07,1.07,0,0,1-.837.258,14.3,14.3,0,0,0-3.807-.867.267.267,0,0,0-.182.289c.547.288,1.218.3,1.8.549.518.135.868.776,1.522.578.549-.3,1.462.182,1.828-.4-.061-.564.426-.975.67-1.462l.183-.044c.3.318.288.79.425,1.141.427-.458.762-.959,1.143-1.432a13.618,13.618,0,0,0,2.222-4.7,4.491,4.491,0,0,0-1.2.212m-19.182,0a23.669,23.669,0,0,1-2.817,3.03,11.624,11.624,0,0,0,5.481,2.528c.107-.412-.061-.929.153-1.279.152-.335.564-.32.868-.259a.259.259,0,0,0,.182-.4c-.441-.09-.244-.578-.4-.852.015-.152.274-.121.214-.32-.3-.243.152-.517-.107-.776.107-.076.183-.244.335-.244-.958.5-1.995-.106-2.846-.487-.4-.229-.975-.456-1.066-.944M47.455,38.5c-.045.121-.214.335,0,.411.365-.38,1.141-.365,1.172-.913-.533-.077-.806.212-1.172.5m1.72,1.141c-.473,0-.715.367-1.067.655-.426.244-.638-.456-.99-.288.016.076.092.106.153.137a.345.345,0,0,1,0,.441c-.517.473-.761-.228-1.249-.183v.183c.015.106-.029.274-.182.214-.3-.5-.929-.32-1.234-.762-.2-.1-.38.03-.517.153-.107.229-.594-.03-.473.365-.38.137-.426.549-.7.791-.471-.076-.685.458-1.126.442.046.091,0,.243.137.258a1.547,1.547,0,0,0,.884.107c.456-.732,1.218-.123,1.857-.4.4.075.123.5.412.654.623-.2,1.1.533,1.6.077-.03-.715.777-.656,1.218-.838.685-.411,1.461-.959,1.385-1.872Zm-14.691.426a22.538,22.538,0,0,1-3.03,3.107c.471.03.731.547,1.126.776a19.017,19.017,0,0,0,7.78,3.471l-.732-.335c-.549-.623-1.323-1.355-1.354-2.222.547-.183.487-.792.67-1.2a3.061,3.061,0,0,1,1.6-.884c-1.537.641-2.877-.5-4.156-1.1a5.9,5.9,0,0,1-1.9-1.614m21.145,4.248-.106-.289a2.483,2.483,0,0,1-.685.868c.015.243-.076.608.214.776.609.2,1.4.594,1.538,1.309-.244.67-1.523,1.279-.732,2.01.259.365-.365.5-.258.806l.212-.288a21.286,21.286,0,0,0,2.71-2.269h.106c-.182-.061-.411.121-.624.03a.972.972,0,0,1-.5-1.02ZM31.15,44.9l-.061-.107.061.183Zm.487.655a.678.678,0,0,1-.365-.471Zm.106.121c.092.365.579.594.442,1.05a1.289,1.289,0,0,1-1.218.411c-.867-.137-1.507.518-2.329.609-.746.229-1-.685-1.69-.609a23.946,23.946,0,0,0,14.737,6.317l.427.291-.183-.518V49.2l-.364.153a17.639,17.639,0,0,1-9.821-3.684m28.135,2.846-.076-.364a8.234,8.234,0,0,1-2.086,2.008c-.99.99-2.6,1.2-3.107,2.634-.532.487-.715,1.249-1.461,1.523-.273.729-1.049.685-1.491,1.217-1.279,1.141-2.1-.731-3.259-.959l-2.328.411a7.323,7.323,0,0,1-2.375.032,35.892,35.892,0,0,1,0,4.779l.288-.182A29.631,29.631,0,0,0,63.09,51.579Zm-33.8-.046-.045.183L22.9,51.807a30.849,30.849,0,0,0,16.229,7.6,25.291,25.291,0,0,1,3.03.365l-.229-.365V55.28l.153-.23-.471.124a24.022,24.022,0,0,1-15.529-6.7M43.466,49.54l.229.335a31.083,31.083,0,0,1,0,3.759,23.546,23.546,0,0,1,3.653-.517,1.276,1.276,0,0,1-.67-.4c-.714-.046-1.05-.793-1.278-1.355-.107-.411.167-.747.335-1.1-.3-.624-1.249-.167-1.8-.4-.152-.123-.259-.3-.471-.335" fill="#009dda"/>
    <path d="M71.462,5.77a13.482,13.482,0,0,1,3.9,7.262l.367.853a32.036,32.036,0,0,1-8.251-8.769L64.948,2.558C67.17,3.5,69.56,4.065,71.462,5.77" fill="#009dda"/>
    <path d="M14.859,9.743c-1.493,1.843-3.4,3.06-5.085,4.644.913-1.888.944-4.142,2.237-5.876,1.843-3.213,5.253-4.339,8.3-5.527a37.656,37.656,0,0,0-5.45,6.76" fill="#009dda"/>
    <path d="M79.38,13.108c.715,3.2-.32,6.317.335,9.545l-.03.03c-1.737-3.425-5.435-5.039-7.978-7.78a10.93,10.93,0,0,1-2.481-5.709c1.461,3.518,5.388,4.294,7.642,7.248a9.532,9.532,0,0,1,1.493,2.405l.076-.077C77.141,16,76.7,12.879,75.8,9.925a6.9,6.9,0,0,0-2.557-3.35c2.954.609,5.526,3.7,6.135,6.532" fill="#009dda"/>
    <path d="M12.088,7.125C9.074,9.2,9.272,12.91,8.313,16c-.3,1.143-.838,2.193-1.1,3.365l.076.061a10.471,10.471,0,0,1,2.481-3.654c2.147-1.978,5.314-3.212,6.364-6.135C16.093,13.7,12.7,16.9,9.454,19.183A13.548,13.548,0,0,0,6.09,23.2c-.076-1.02.153-2.055.077-3.151-.35-3.548-.609-7.6,1.9-10.231a7.564,7.564,0,0,1,4.019-2.695" fill="#009dda"/>
    <path d="M81.282,13.808a14.262,14.262,0,0,1,1.325,13.656A24.078,24.078,0,0,0,81.069,33.1c-.137-.335-.167-.793-.288-1.173-1.066-4.094-4.947-7.018-6.547-10.885A20.405,20.405,0,0,1,73.06,17.1c1.706,3.151,5.908,4.78,7.05,8.251a15.768,15.768,0,0,1,.729,2.922.117.117,0,0,0,.123-.106A39.908,39.908,0,0,1,81.1,17.309a8.963,8.963,0,0,0-1.279-5.252c.686.4.991,1.157,1.462,1.751" fill="#009dda"/>
    <path d="M5.648,12.667c-2.313,3.516-.4,7.947-.5,11.951l-.3,4.1c.045.03.045.153.152.106A14.181,14.181,0,0,0,5.253,27.4c.549-3.3,3.41-5.649,5.922-7.931a6.47,6.47,0,0,0,1.28-1.9,16.9,16.9,0,0,1-1.4,4.827C9.1,26.2,5.5,29.321,4.842,33.676c-.32-4.172-3.166-7.293-2.877-11.723-.092-3.593,1.4-6.531,3.5-9.211.061-.03.106-.091.182-.076" fill="#009dda"/>
    <path d="M83.81,37.512c-1.6,2.268-3.532,4.385-5.009,6.7.168-1.828.382-4.081-.335-5.817A50.453,50.453,0,0,1,75.8,26.779l.046-1.567c.929,4.186,5.041,7.063,4.782,11.752a10.274,10.274,0,0,1-.473,3.106l.076.077.183-.214a46.685,46.685,0,0,1,1.857-6.866c1.355-3.09,3.03-6.212,2.345-9.941,2.055,4.4,1.431,10.276-.806,14.386" fill="#009dda"/>
    <path d="M4.476,36.05a38.682,38.682,0,0,0,1.172,4.644c.062.03.107-.03.153-.076-1.569-4.385.685-8.45,2.954-11.875A11.565,11.565,0,0,0,9.9,25.714a25.565,25.565,0,0,1-.549,6.317c-.547,2.619-1.37,5.1-2.084,7.643a11.948,11.948,0,0,0-.107,5.039l-.229-.183c-1.66-3.06-4.947-5.45-5.922-8.8a18.642,18.642,0,0,1-.791-8.662,16.148,16.148,0,0,1,.944-3.319c-.929,4.75,2.268,8.175,3.318,12.3" fill="#009dda"/>
    <path d="M77.522,44.713a10.952,10.952,0,0,1-1.858,5.526h.183a69.632,69.632,0,0,1,4.309-5.785C82.805,41.9,85.5,39.278,85.85,35.73c.9,5.923-2.422,11.114-7.339,14.462-2.025,1.326-4.08,2.558-6.029,4.066v-.182c2.984-4.964,1.522-11.77,3.365-17.219l.685-1.826c-.38,3.395,1.1,6.272.99,9.682" fill="#009dda"/>
    <path d="M12.149,51.443c.32,1.126.975,2.131,1.4,3.213C9.013,51.564,2.832,48.626.823,42.963a14.072,14.072,0,0,1-.761-6.608c.365,5.039,5.784,7.7,8.3,11.875a13.819,13.819,0,0,0,1.9,2.513c-.121-.533-.623-.99-.806-1.538a10.856,10.856,0,0,1-.99-5.952c.244-2.573,1.325-4.964.914-7.674,2.207,4.765,1.538,10.7,2.771,15.864" fill="#009dda"/>
    <path d="M70.762,55.2a15.077,15.077,0,0,1-3.106,3.73c.4-.016.746-.365,1.1-.594,3.274-3.259,7.536-4.171,11.067-6.82a10.674,10.674,0,0,0,3.336-4.2c-.671,5.4-6.046,10.473-11.114,12.087-2.619.7-5.42.928-7.963,1.8,4.309-3.7,4.066-9.424,6.943-13.777a44.254,44.254,0,0,1,2.74-3.7c-1.751,3.516-.99,8.068-3,11.479" fill="#009dda"/>
    <path d="M16.4,50.635c1.523,3.745,2.1,7.977,5.618,10.809-3.807-1.248-8.266-.9-11.617-3.243-3.669-2.254-6.942-6.073-7.627-10.276,2.527,5.724,8.86,6.2,13.107,9.682A10.549,10.549,0,0,0,18.361,59.3l.046-.045a14.682,14.682,0,0,1-2.787-3.03c-2.48-3.457-1.613-8.3-3.47-12.011A27.938,27.938,0,0,1,16.4,50.635" fill="#009dda"/>
    <path d="M61.552,61.779a23.244,23.244,0,0,1-3.06,1.172,32.144,32.144,0,0,0,3.973-.593c5.024-.792,10.779.015,14.3-4.263-1.308,2.984-4.582,5.481-7.565,6.532-5.132,1.933-10.292-.441-15.209-1.234l-.944-.123v-.03a13.794,13.794,0,0,0,6.5-2.922c2.755-2.649,5.206-5.374,8.266-7.46-2.268,2.908-2.512,7.048-6.257,8.921" fill="#009dda"/>
    <path d="M26.338,60.394a14.164,14.164,0,0,0,6.76,3c-.593.214-1.369.153-2.01.321-4.43,1.1-9.363,2.877-14.067,1.278A13.648,13.648,0,0,1,9.272,58.6c4.05,4.614,10.672,3.077,16.076,4.279a7.582,7.582,0,0,0,2.269.289c-.64-.411-1.537-.365-2.238-.731-4.232-1.493-4.856-6.076-7.154-9.165,2.937,1.948,5.4,4.582,8.113,7.125" fill="#009dda"/>
    <path d="M59.405,66.636a11.733,11.733,0,0,0,10.367-1.127,12.307,12.307,0,0,1-5.479,3.837c-4.568,1.705-9.333-.076-12.9-2.787-1.446-.913-2.724-2.237-4.6-2.116a6.45,6.45,0,0,0-1.9.183,35.282,35.282,0,0,1,9.638,6.684,14.59,14.59,0,0,1-1.751,1.582c-2.833-3.059-5.984-6-9.5-7.719a6.174,6.174,0,0,0-1.964.839A29.335,29.335,0,0,0,33.494,73l-1.828-1.507a33.411,33.411,0,0,1,9.683-6.9c-3.471-1.1-5.74,1.813-8.374,3.289-3.075,2.146-7.49,3.151-11.205,1.675A12.255,12.255,0,0,1,16.4,65.875a11.914,11.914,0,0,0,10.6.914c4.461-1.934,9.089-4.386,14.462-3.213.838.015,1.66.852,2.452.137a17.167,17.167,0,0,1,11.95,1.508Z" fill="#009dda"/>
  </g>
</svg>
